<svg
  width="24"
  height="25"
  viewBox="0 0 24 25"
  fill="none"
  xmlns="http://www.w3.org/2000/svg"
>
  <path
    d="M20.91 9.32411L8.56 2.71411C8.28129 2.56614 7.97055 2.48877 7.65499 2.48877C7.33944 2.48877 7.0287 2.56614 6.74999 2.71411L3.09999 4.61411C2.77089 4.79446 2.49556 5.05893 2.30212 5.38052C2.10869 5.70211 2.00409 6.06928 1.999 6.44453C1.99392 6.81977 2.08853 7.18964 2.27318 7.51635C2.45783 7.84307 2.7259 8.11491 3.04999 8.30411L15.27 15.2341C15.5668 15.3987 15.9006 15.4851 16.24 15.4851C16.5794 15.4851 16.9132 15.3987 17.21 15.2341L21 12.9941C21.3174 12.8001 21.5782 12.5261 21.7562 12.1994C21.9342 11.8728 22.0231 11.505 22.0139 11.1331C22.0048 10.7613 21.898 10.3983 21.7042 10.0808C21.5105 9.76324 21.2365 9.50228 20.91 9.32411Z"
    stroke="currentColor"
    stroke-opacity="0.8"
    stroke-width="2"
    stroke-linecap="round"
    stroke-linejoin="round"
  />
  <path
    d="M3.09 9.32411L15.44 2.71411C15.7187 2.56614 16.0294 2.48877 16.345 2.48877C16.6606 2.48877 16.9713 2.56614 17.25 2.71411L20.9 4.61411C21.2318 4.7899 21.5109 5.05065 21.7088 5.36969C21.9068 5.68873 22.0164 6.05461 22.0266 6.42993C22.0368 6.80525 21.9471 7.17653 21.7667 7.50583C21.5863 7.83512 21.3217 8.1106 21 8.30411L8.73 15.2341C8.4332 15.3987 8.09939 15.4851 7.76 15.4851C7.42061 15.4851 7.0868 15.3987 6.79 15.2341L3 12.9941C2.68258 12.8001 2.42178 12.5261 2.2438 12.1994C2.06582 11.8728 1.97693 11.505 1.98605 11.1331C1.99517 10.7613 2.10198 10.3983 2.29576 10.0808C2.48953 9.76324 2.76345 9.50228 3.09 9.32411Z"
    stroke="currentColor"
    stroke-opacity="0.8"
    stroke-width="2"
    stroke-linecap="round"
    stroke-linejoin="round"
  />
  <path
    d="M12 22.4841V13.4841"
    stroke="currentColor"
    stroke-opacity="0.8"
    stroke-width="2"
    stroke-linecap="round"
    stroke-linejoin="round"
  />
  <path
    d="M20 13.9841V17.3541C20.0004 17.7316 19.8971 18.1019 19.7013 18.4246C19.5056 18.7473 19.2249 19.0101 18.89 19.1841L12.89 22.2641C12.6151 22.407 12.3098 22.4816 12 22.4816C11.6902 22.4816 11.3849 22.407 11.11 22.2641L5.11 19.1841C4.77508 19.0101 4.49443 18.7473 4.29868 18.4246C4.10293 18.1019 3.99961 17.7316 4 17.3541V13.9841"
    stroke="currentColor"
    stroke-opacity="0.8"
    stroke-width="2"
    stroke-linecap="round"
    stroke-linejoin="round"
  />
</svg>
