<svg
  width="25"
  height="25"
  viewBox="0 0 25 25"
  fill="none"
  xmlns="http://www.w3.org/2000/svg"
>
  <path
    d="M20.3185 20.7517C20.8489 20.7517 21.3576 20.541 21.7327 20.1659C22.1078 19.7908 22.3185 19.2821 22.3185 18.7517V8.75171C22.3185 8.22128 22.1078 7.71257 21.7327 7.3375C21.3576 6.96242 20.8489 6.75171 20.3185 6.75171H12.4185C12.084 6.75499 11.754 6.67432 11.4588 6.51709C11.1635 6.35986 10.9124 6.13108 10.7285 5.85171L9.91848 4.65171C9.73637 4.37518 9.48846 4.14819 9.19698 3.99111C8.90551 3.83402 8.57959 3.75176 8.24848 3.75171H4.31848C3.78805 3.75171 3.27934 3.96242 2.90427 4.3375C2.5292 4.71257 2.31848 5.22128 2.31848 5.75171V18.7517C2.31848 19.2821 2.5292 19.7908 2.90427 20.1659C3.27934 20.541 3.78805 20.7517 4.31848 20.7517H20.3185Z"
    stroke="currentColor"
    stroke-opacity="0.8"
    stroke-width="2"
    stroke-linecap="round"
    stroke-linejoin="round"
  />
  <path
    d="M12.3185 10.7517V16.7517"
    stroke="currentColor"
    stroke-opacity="0.8"
    stroke-width="2"
    stroke-linecap="round"
    stroke-linejoin="round"
  />
  <path
    d="M15.3185 13.7517L12.3185 16.7517L9.31848 13.7517"
    stroke="currentColor"
    stroke-opacity="0.8"
    stroke-width="2"
    stroke-linecap="round"
    stroke-linejoin="round"
  />
</svg>
