<svg
  width="120"
  height="120"
  viewBox="0 0 120 120"
  fill="none"
  xmlns="http://www.w3.org/2000/svg"
>
  <g clip-path="url(#clip0_261_824)">
    <g filter="url(#filter0_ii_261_824)">
      <path
        d="M96.0386 0H23.9614C10.7279 0 0 10.6392 0 23.7634V95.2449C0 108.369 10.7279 119.008 23.9614 119.008H96.0386C109.272 119.008 120 108.369 120 95.2449V23.7634C120 10.6392 109.272 0 96.0386 0Z"
        fill="#121212"
      />
      <path
        d="M96.0381 0.593994H23.961C11.0583 0.593994 0.598633 10.9672 0.598633 23.7632V95.2447C0.598633 108.041 11.0583 118.414 23.961 118.414H96.0381C108.941 118.414 119.4 108.041 119.4 95.2447V23.7632C119.4 10.9672 108.941 0.593994 96.0381 0.593994Z"
        stroke="white"
        stroke-opacity="0.1"
        stroke-width="1.068"
      />
      <path
        fill-rule="evenodd"
        clip-rule="evenodd"
        d="M26.9091 26.6539C28.8051 24.7989 31.362 23.7598 34.0253 23.7622C36.6888 23.7601 39.2457 24.7996 41.1415 26.655C42.0738 27.5672 42.8144 28.6538 43.3203 29.8519C43.8262 31.0499 44.0874 32.3356 44.0887 33.6345V39.7406H75.9123V33.6345C75.9123 31.0165 76.9725 28.5053 78.8595 26.6539C80.7555 24.7989 83.3124 23.7598 85.9757 23.7622C88.6392 23.7601 91.1961 24.7996 93.0919 26.655C94.0243 27.5672 94.7648 28.6538 95.2707 29.8519C95.7766 31.0499 96.0378 32.3356 96.0391 33.6345C96.0391 36.2525 94.9789 38.7637 93.0919 40.6151C91.196 42.4702 88.6391 43.5092 85.9757 43.5068H79.7515V75.5013H85.9757C88.6389 75.4987 91.1958 76.5373 93.0919 78.3919C94.0244 79.3043 94.765 80.391 95.271 81.5893C95.7769 82.7876 96.038 84.0735 96.0391 85.3725C96.0391 87.9916 94.9789 90.5017 93.0919 92.3531C91.196 94.2082 88.6391 95.2472 85.9757 95.2448C83.3124 95.2472 80.7555 94.2082 78.8595 92.3531C77.927 91.4408 77.1864 90.354 76.6805 89.1558C76.1746 87.9575 75.9135 86.6716 75.9123 85.3725V79.2665H44.0887V85.3725C44.0887 87.9916 43.0285 90.5017 41.1415 92.3531C39.2455 94.2082 36.6886 95.2472 34.0253 95.2448C31.362 95.2472 28.8051 94.2082 26.9091 92.3531C25.9766 91.4408 25.236 90.354 24.7301 89.1558C24.2242 87.9575 23.9631 86.6716 23.9619 85.3725C23.9619 82.7545 25.0221 80.2434 26.9091 78.3919C28.8052 76.5373 31.3621 75.4987 34.0253 75.5013H40.2496V43.5068H34.0253C31.3618 43.5089 28.8049 42.4694 26.9091 40.614C25.9768 39.7018 25.2362 38.6152 24.7303 37.4171C24.2244 36.2191 23.9632 34.9334 23.9619 33.6345C23.9619 31.0165 25.0221 28.5053 26.9091 26.6539ZM40.2496 39.7406V33.6345C40.2487 32.8311 40.0872 32.0359 39.7742 31.2948C39.4613 30.5538 39.0032 29.8817 38.4265 29.3175C37.2539 28.1701 35.6726 27.5273 34.0253 27.5284C32.3778 27.5267 30.796 28.1691 29.623 29.3164C29.0461 29.8808 28.588 30.553 28.275 31.2942C27.9621 32.0355 27.8006 32.8309 27.7999 33.6345C27.7999 35.2545 28.4562 36.8077 29.623 37.9515C30.7958 39.0992 32.3776 39.742 34.0253 39.7406H40.2496ZM44.0887 43.5068V75.5013H75.9123V43.5068H44.0887ZM40.2496 79.2665H34.0253C32.3776 79.265 30.7958 79.9079 29.623 81.0556C29.0463 81.6198 28.5882 82.2918 28.2752 83.0329C27.9623 83.7739 27.8007 84.5691 27.7999 85.3725C27.8007 86.1761 27.9623 86.9715 28.2752 87.7127C28.5881 88.4539 29.0462 89.1262 29.623 89.6906C30.7958 90.8383 32.3776 91.4811 34.0253 91.4797C35.6726 91.4808 37.2539 90.838 38.4265 89.6906C39.0032 89.1264 39.4613 88.4543 39.7742 87.7133C40.0872 86.9723 40.2487 86.177 40.2496 85.3736V79.2665ZM79.7515 79.2665V85.3725C79.7515 86.9925 80.4066 88.5457 81.5745 89.6906C82.7471 90.838 84.3284 91.4808 85.9757 91.4797C87.6234 91.4811 89.2052 90.8383 90.378 89.6906C90.9547 89.1264 91.4128 88.4543 91.7258 87.7133C92.0387 86.9723 92.2003 86.177 92.2011 85.3736C92.2004 84.5701 92.0389 83.7746 91.726 83.0334C91.413 82.2922 90.9549 81.6199 90.378 81.0556C89.2052 79.9079 87.6234 79.265 85.9757 79.2665H79.7515ZM79.7515 39.7406H85.9757C87.6232 39.7423 89.205 39.0999 90.378 37.9526C90.9547 37.3884 91.4127 36.7163 91.7257 35.9752C92.0386 35.2342 92.2002 34.439 92.2011 33.6356C92.2006 32.8318 92.0391 32.0362 91.7262 31.2948C91.4133 30.5533 90.955 29.8809 90.378 29.3164C89.205 28.1691 87.6232 27.5267 85.9757 27.5284C84.3286 27.527 82.7473 28.1694 81.5745 29.3164C80.9977 29.8808 80.5395 30.553 80.2266 31.2942C79.9136 32.0355 79.7521 32.8309 79.7515 33.6345V39.7406ZM50.4341 68.731C50.2562 68.5571 50.1149 68.3499 50.0185 68.1214C49.9221 67.8928 49.8724 67.6475 49.8724 67.3998C49.8724 67.1521 49.9221 66.9068 50.0185 66.6782C50.1149 66.4497 50.2562 66.2425 50.4341 66.0685L63.3404 53.408H58.4186C58.1679 53.4095 57.9194 53.3619 57.6872 53.2681C57.4551 53.1743 57.2438 53.036 57.0655 52.8612C56.8873 52.6864 56.7455 52.4784 56.6483 52.2492C56.5511 52.02 56.5004 51.7741 56.4991 51.5255C56.4991 50.4863 57.3584 49.6429 58.4175 49.6429H67.9031C67.9514 49.6411 67.9996 49.6411 68.0478 49.6429H68.2846C69.3448 49.6429 70.203 50.4863 70.203 51.5255V61.2042C70.203 62.2433 69.3448 63.0867 68.2846 63.0867C67.2244 63.0867 66.3661 62.2433 66.3661 61.2042V55.7668L53.1469 68.731C52.7852 69.0846 52.2978 69.2828 51.7899 69.2828C51.2821 69.2828 50.7958 69.0846 50.4341 68.731Z"
        fill="url(#paint0_linear_261_824)"
      />
    </g>
  </g>
  <defs>
    <filter
      id="filter0_ii_261_824"
      x="0"
      y="-2.136"
      width="120"
      height="123.28"
      filterUnits="userSpaceOnUse"
      color-interpolation-filters="sRGB"
    >
      <feFlood flood-opacity="0" result="BackgroundImageFix" />
      <feBlend
        mode="normal"
        in="SourceGraphic"
        in2="BackgroundImageFix"
        result="shape"
      />
      <feColorMatrix
        in="SourceAlpha"
        type="matrix"
        values="0 0 0 0 0 0 0 0 0 0 0 0 0 0 0 0 0 0 127 0"
        result="hardAlpha"
      />
      <feOffset dy="2.136" />
      <feGaussianBlur stdDeviation="2.403" />
      <feComposite in2="hardAlpha" operator="arithmetic" k2="-1" k3="1" />
      <feColorMatrix
        type="matrix"
        values="0 0 0 0 0.301611 0 0 0 0 0.301611 0 0 0 0 0.301611 0 0 0 0.25 0"
      />
      <feBlend mode="normal" in2="shape" result="effect1_innerShadow_261_824" />
      <feColorMatrix
        in="SourceAlpha"
        type="matrix"
        values="0 0 0 0 0 0 0 0 0 0 0 0 0 0 0 0 0 0 127 0"
        result="hardAlpha"
      />
      <feOffset dy="-2.136" />
      <feGaussianBlur stdDeviation="1.068" />
      <feComposite in2="hardAlpha" operator="arithmetic" k2="-1" k3="1" />
      <feColorMatrix
        type="matrix"
        values="0 0 0 0 0 0 0 0 0 0 0 0 0 0 0 0 0 0 0.25 0"
      />
      <feBlend
        mode="normal"
        in2="effect1_innerShadow_261_824"
        result="effect2_innerShadow_261_824"
      />
    </filter>
    <linearGradient
      id="paint0_linear_261_824"
      x1="60.0005"
      y1="23.7622"
      x2="60.0005"
      y2="91.8936"
      gradientUnits="userSpaceOnUse"
    >
      <stop stop-color="#EA580C" />
      <stop offset="1" stop-color="#EA0C4F" />
    </linearGradient>
    <clipPath id="clip0_261_824">
      <rect width="120" height="120" fill="white" />
    </clipPath>
  </defs>
</svg>
