<svg xmlns="http://www.w3.org/2000/svg" width="401" height="316" fill="none">
  <g filter="url(#active-b)" class="logo">
    <rect
      width="184.368"
      height="184.368"
      x="111.586"
      y="59.945"
      fill="#171717"
      rx="32"
    />
  </g>
  <rect
    class="logo"
    width="184.868"
    height="184.868"
    x="111.336"
    y="59.695"
    stroke="url(#active-c)"
    stroke-linecap="round"
    stroke-linejoin="round"
    stroke-width=".5"
    rx="32.25"
  />

  <g filter="url(#active-e)" shape-rendering="crispEdges" class="logo">
    <path
      fill="url(#active-f)"
      d="M186.715 168.718a3.358 3.358 0 0 1 0-4.787l23.01-22.76h-8.776c-1.89 0-3.422-1.515-3.422-3.385 0-1.869 1.532-3.384 3.422-3.384h16.911c.086-.003.171-.003.256 0h.423c1.89 0 3.422 1.515 3.422 3.384v17.399c0 1.87-1.532 3.385-3.422 3.385-1.889 0-3.421-1.515-3.421-3.385v-9.775l-23.564 23.308a3.448 3.448 0 0 1-4.839 0Z"
    />
    <path
      fill="url(#active-g)"
      fill-rule="evenodd"
      d="M144.772 93.074a18.044 18.044 0 0 1 12.687-5.198c4.759 0 9.322 1.87 12.687 5.198a17.648 17.648 0 0 1 5.255 12.549v10.978h56.738v-10.978c0-4.707 1.89-9.22 5.255-12.549a18.042 18.042 0 0 1 12.687-5.198c4.758 0 9.322 1.87 12.687 5.198a17.648 17.648 0 0 1 5.255 12.549c0 4.707-1.89 9.221-5.255 12.549a18.045 18.045 0 0 1-12.687 5.198h-11.098v57.518h11.098c4.758 0 9.322 1.87 12.687 5.198a17.648 17.648 0 0 1 5.255 12.549c0 4.707-1.89 9.221-5.255 12.549a18.045 18.045 0 0 1-12.687 5.198c-4.759 0-9.322-1.87-12.687-5.198a17.648 17.648 0 0 1-5.255-12.549v-10.978h-56.738v10.978c0 4.707-1.89 9.221-5.255 12.549a18.043 18.043 0 0 1-12.687 5.198c-4.758 0-9.322-1.87-12.687-5.198a17.652 17.652 0 0 1-5.255-12.549c0-4.707 1.891-9.221 5.255-12.549a18.045 18.045 0 0 1 12.687-5.198h11.098V123.37h-11.098c-4.758 0-9.322-1.87-12.687-5.198a17.652 17.652 0 0 1-5.255-12.549c0-4.707 1.891-9.22 5.255-12.549Zm23.785 23.527v-10.978a10.92 10.92 0 0 0-3.25-7.762 11.161 11.161 0 0 0-7.848-3.216 11.163 11.163 0 0 0-7.848 3.216 10.92 10.92 0 0 0-3.25 7.762c0 2.911 1.169 5.704 3.25 7.762a11.163 11.163 0 0 0 7.848 3.216h11.098Zm6.844 6.769v57.518h56.738V123.37h-56.738Zm-6.844 64.287h-11.098a11.166 11.166 0 0 0-7.848 3.215 10.92 10.92 0 0 0-3.25 7.763c0 2.911 1.169 5.703 3.25 7.762a11.162 11.162 0 0 0 7.848 3.215 11.16 11.16 0 0 0 7.848-3.215 10.919 10.919 0 0 0 3.25-7.762v-10.978Zm70.426 0v10.978c0 2.911 1.169 5.703 3.25 7.762a11.16 11.16 0 0 0 7.848 3.215c2.943 0 5.766-1.156 7.848-3.215a10.919 10.919 0 0 0 3.25-7.762 10.92 10.92 0 0 0-3.25-7.763 11.166 11.166 0 0 0-7.848-3.215h-11.098Zm0-71.056h11.098c2.943 0 5.766-1.157 7.848-3.216a10.917 10.917 0 0 0 3.25-7.762 10.92 10.92 0 0 0-3.25-7.762 11.163 11.163 0 0 0-7.848-3.216 11.161 11.161 0 0 0-7.848 3.216 10.92 10.92 0 0 0-3.25 7.762v10.978Z"
      clip-rule="evenodd"
    />
    <path
      stroke="url(#active-h)"
      stroke-linecap="round"
      stroke-linejoin="round"
      stroke-width=".5"
      d="M175.151 116.601c0 .138.112.25.25.25h56.738a.25.25 0 0 0 .25-.25v-10.978c0-4.64 1.863-9.09 5.181-12.371a17.793 17.793 0 0 1 12.511-5.126c4.693 0 9.193 1.844 12.511 5.126a17.397 17.397 0 0 1 5.181 12.371c0 4.64-1.863 9.09-5.181 12.371a17.792 17.792 0 0 1-12.511 5.126h-11.098a.25.25 0 0 0-.25.25v57.518c0 .138.112.25.25.25h11.098c4.693 0 9.193 1.844 12.511 5.126a17.396 17.396 0 0 1 5.181 12.371c0 4.639-1.863 9.09-5.181 12.371a17.792 17.792 0 0 1-12.511 5.126 17.792 17.792 0 0 1-12.511-5.126 17.398 17.398 0 0 1-5.181-12.371v-10.978a.25.25 0 0 0-.25-.25h-56.738a.25.25 0 0 0-.25.25v10.978c0 4.639-1.863 9.09-5.181 12.371a17.79 17.79 0 0 1-12.511 5.126 17.792 17.792 0 0 1-12.511-5.126 17.402 17.402 0 0 1-5.181-12.371 17.4 17.4 0 0 1 5.181-12.371 17.792 17.792 0 0 1 12.511-5.126h11.098a.25.25 0 0 0 .25-.25V123.37a.25.25 0 0 0-.25-.25h-11.098a17.792 17.792 0 0 1-12.511-5.126 17.4 17.4 0 0 1-5.181-12.371c0-4.64 1.864-9.09 5.181-12.371a17.793 17.793 0 0 1 12.511-5.126c4.693 0 9.194 1.844 12.511 5.126a17.397 17.397 0 0 1 5.181 12.371v10.978Zm-6.594.25a.25.25 0 0 0 .25-.25v-10.978c0-2.979-1.196-5.835-3.324-7.94a11.412 11.412 0 0 0-8.024-3.288 11.408 11.408 0 0 0-8.023 3.288 11.165 11.165 0 0 0-3.325 7.94c0 2.979 1.196 5.835 3.325 7.94a11.41 11.41 0 0 0 8.023 3.288h11.098Zm6.594 64.037c0 .138.112.25.25.25h56.738a.25.25 0 0 0 .25-.25V123.37a.25.25 0 0 0-.25-.25h-56.738a.25.25 0 0 0-.25.25v57.518Zm-6.344 6.769a.25.25 0 0 0-.25-.25h-11.098a11.406 11.406 0 0 0-8.023 3.288 11.164 11.164 0 0 0-3.325 7.94c0 2.978 1.196 5.835 3.325 7.94a11.41 11.41 0 0 0 8.023 3.287c3.009 0 5.895-1.182 8.024-3.287a11.169 11.169 0 0 0 3.324-7.94v-10.978Zm70.176-.25a.25.25 0 0 0-.25.25v10.978c0 2.978 1.196 5.835 3.324 7.94a11.413 11.413 0 0 0 8.024 3.287 11.41 11.41 0 0 0 8.023-3.287 11.166 11.166 0 0 0 3.325-7.94c0-2.979-1.196-5.835-3.325-7.94a11.406 11.406 0 0 0-8.023-3.288h-11.098Zm-.25-70.806c0 .138.112.25.25.25h11.098a11.41 11.41 0 0 0 8.023-3.288 11.164 11.164 0 0 0 3.325-7.94c0-2.979-1.196-5.835-3.325-7.94a11.408 11.408 0 0 0-8.023-3.288 11.412 11.412 0 0 0-8.024 3.288 11.168 11.168 0 0 0-3.324 7.94v10.978Zm-28.832 24.748a.25.25 0 0 0-.176-.428h-8.776c-1.754 0-3.172-1.406-3.172-3.135 0-1.728 1.418-3.134 3.172-3.134h16.911v0h.009c.08-.003.159-.003.238 0v0h.432c1.755 0 3.172 1.406 3.172 3.134v17.399c0 1.729-1.417 3.135-3.172 3.135-1.754 0-3.171-1.406-3.171-3.135v-9.775a.25.25 0 0 0-.426-.178l-23.564 23.308a3.198 3.198 0 0 1-4.488 0 3.11 3.11 0 0 1 0-4.431l23.011-22.76Z"
    />
  </g>
  <defs>
    <linearGradient
      id="active-a"
      x1="203.589"
      x2="203.589"
      y1="-12.15"
      y2="272.735"
      gradientUnits="userSpaceOnUse"
    >
      <stop offset=".659" stop-color="#fff" />
      <stop offset="1" stop-color="#fff" stop-opacity="0" />
    </linearGradient>
    <linearGradient
      id="active-c"
      x1="284.014"
      x2="184.66"
      y1="64.27"
      y2="224.34"
      gradientUnits="userSpaceOnUse"
    >
      <stop stop-color="#fff" />
      <stop offset="1" stop-color="#fff" stop-opacity="0" />
    </linearGradient>
    <linearGradient
      id="active-d"
      x1="203.814"
      x2="203.814"
      y1="59.545"
      y2="90.499"
      gradientUnits="userSpaceOnUse"
    >
      <stop stop-color="#fff" />
      <stop offset="1" stop-color="#fff" stop-opacity="0" />
    </linearGradient>
    <linearGradient
      id="active-f"
      x1="254.208"
      x2="219.434"
      y1="90.764"
      y2="222.684"
      gradientUnits="userSpaceOnUse"
    >
      <stop offset=".127" stop-color="#F65400" />
      <stop offset=".765" stop-color="#F60059" stop-opacity=".8" />
      <stop offset="1" stop-color="#7F0008" stop-opacity=".27" />
    </linearGradient>
    <linearGradient
      id="active-g"
      x1="254.208"
      x2="219.434"
      y1="90.764"
      y2="222.684"
      gradientUnits="userSpaceOnUse"
    >
      <stop offset=".127" stop-color="#F65400" />
      <stop offset=".765" stop-color="#F60059" stop-opacity=".8" />
      <stop offset="1" stop-color="#7F0008" stop-opacity=".27" />
    </linearGradient>
    <linearGradient
      id="active-h"
      x1="203.77"
      x2="203.77"
      y1="87.876"
      y2="216.382"
      gradientUnits="userSpaceOnUse"
    >
      <stop stop-color="#fff" stop-opacity=".23" />
      <stop offset="1" stop-color="#fff" stop-opacity=".16" />
    </linearGradient>
    <filter
      id="active-b"
      width="185.368"
      height="189.368"
      x="111.086"
      y="59.445"
      color-interpolation-filters="sRGB"
      filterUnits="userSpaceOnUse"
    >
      <feFlood flood-opacity="0" result="BackgroundImageFix" />
      <feBlend in="SourceGraphic" in2="BackgroundImageFix" result="shape" />
      <feColorMatrix
        in="SourceAlpha"
        result="hardAlpha"
        values="0 0 0 0 0 0 0 0 0 0 0 0 0 0 0 0 0 0 127 0"
      />
      <feOffset dy="4" />
      <feGaussianBlur stdDeviation="2" />
      <feComposite in2="hardAlpha" k2="-1" k3="1" operator="arithmetic" />
      <feColorMatrix
        values="0 0 0 0 0.376156 0 0 0 0 0.376156 0 0 0 0 0.376156 0 0 0 0.25 0"
      />
      <feBlend in2="shape" result="effect1_innerShadow_201_2810" />
    </filter>
    <filter
      id="active-e"
      width="144.506"
      height="144.506"
      x="131.517"
      y="79.876"
      color-interpolation-filters="sRGB"
      filterUnits="userSpaceOnUse"
    >
      <feFlood flood-opacity="0" result="BackgroundImageFix" />
      <feColorMatrix
        in="SourceAlpha"
        result="hardAlpha"
        values="0 0 0 0 0 0 0 0 0 0 0 0 0 0 0 0 0 0 127 0"
      />
      <feOffset />
      <feGaussianBlur stdDeviation="4" />
      <feComposite in2="hardAlpha" operator="out" />
      <feColorMatrix values="0 0 0 0 0 0 0 0 0 0 0 0 0 0 0 0 0 0 0.55 0" />
      <feBlend in2="BackgroundImageFix" result="effect1_dropShadow_201_2810" />
      <feBlend
        in="SourceGraphic"
        in2="effect1_dropShadow_201_2810"
        result="shape"
      />
    </filter>
  </defs>
</svg>
