<svg xmlns="http://www.w3.org/2000/svg" width="401" height="316" fill="none">
  <path
    fill="url(#base-base-a)"
    fill-opacity=".2"
    fill-rule="evenodd"
    d="M103.838-12a.15.15 0 1 0-.3 0v.997a.15.15 0 1 0 .3 0V-12Zm0 2.991a.15.15 0 1 0-.3 0v1.994a.15.15 0 1 0 .3 0v-1.994Zm0 3.989a.15.15 0 1 0-.3 0v1.994a.15.15 0 1 0 .3 0V-5.02Zm0 3.988a.15.15 0 1 0-.3 0V.962a.15.15 0 1 0 .3 0v-1.994Zm0 3.988a.15.15 0 1 0-.3 0V4.95a.15.15 0 1 0 .3 0V2.956Zm0 3.988a.15.15 0 1 0-.3 0V8.94a.15.15 0 1 0 .3 0V6.944Zm0 3.989a.15.15 0 1 0-.3 0v1.994a.15.15 0 1 0 .3 0v-1.994Zm0 3.988a.15.15 0 1 0-.3 0v1.994a.15.15 0 1 0 .3 0v-1.994Zm0 3.988a.15.15 0 1 0-.3 0v1.994a.15.15 0 1 0 .3 0V18.91Zm0 3.989a.15.15 0 1 0-.3 0v1.994a.15.15 0 1 0 .3 0v-1.994Zm0 3.988a.15.15 0 1 0-.3 0v1.994a.15.15 0 1 0 .3 0v-1.994Zm0 3.988a.15.15 0 1 0-.3 0v1.994a.15.15 0 1 0 .3 0v-1.994Zm0 3.988a.15.15 0 1 0-.3 0v1.994a.15.15 0 1 0 .3 0v-1.994Zm0 3.989a.15.15 0 1 0-.3 0v1.994a.15.15 0 1 0 .3 0V38.85Zm0 3.988a.15.15 0 1 0-.3 0v1.994a.15.15 0 1 0 .3 0V42.84Zm0 3.988a.15.15 0 1 0-.3 0v1.994a.15.15 0 1 0 .3 0v-1.994Zm0 3.989a.15.15 0 1 0-.3 0v1.994a.15.15 0 1 0 .3 0v-1.994Zm0 3.988a.15.15 0 1 0-.3 0v1.994a.15.15 0 1 0 .3 0v-1.994Zm0 3.988a.15.15 0 1 0-.3 0v1.994a.15.15 0 1 0 .3 0v-1.994Zm0 3.988a.15.15 0 1 0-.3 0v1.995a.15.15 0 1 0 .3 0V62.78Zm0 3.989a.15.15 0 1 0-.3 0v1.994a.15.15 0 1 0 .3 0v-1.994Zm0 3.988a.15.15 0 1 0-.3 0v1.994a.15.15 0 1 0 .3 0v-1.994Zm0 3.988a.15.15 0 1 0-.3 0v1.994a.15.15 0 1 0 .3 0v-1.994Zm0 3.989a.15.15 0 1 0-.3 0v1.994a.15.15 0 1 0 .3 0v-1.994Zm0 3.988a.15.15 0 1 0-.3 0v1.994a.15.15 0 1 0 .3 0v-1.994Zm0 3.988a.15.15 0 1 0-.3 0v1.994a.15.15 0 1 0 .3 0V86.71Zm0 3.988a.15.15 0 1 0-.3 0v1.994a.15.15 0 1 0 .3 0v-1.994Zm0 3.989a.15.15 0 1 0-.3 0v1.994a.15.15 0 1 0 .3 0v-1.994Zm0 3.988a.15.15 0 1 0-.3 0v1.994a.15.15 0 1 0 .3 0v-1.994Zm0 3.988a.15.15 0 1 0-.3 0v1.994a.15.15 0 1 0 .3 0v-1.994Zm0 3.989a.15.15 0 1 0-.3 0v1.994c0 .082.067.15.15.15.082 0 .15-.068.15-.15v-1.994Zm0 3.988a.15.15 0 1 0-.3 0v1.994a.15.15 0 1 0 .3 0v-1.994Zm0 3.988a.15.15 0 1 0-.3 0v1.994a.15.15 0 1 0 .3 0v-1.994Zm0 3.988a.15.15 0 1 0-.3 0v1.994a.15.15 0 1 0 .3 0v-1.994Zm0 3.989a.15.15 0 1 0-.3 0v1.994a.15.15 0 1 0 .3 0v-1.994Zm0 3.988a.15.15 0 1 0-.3 0v1.994a.15.15 0 1 0 .3 0v-1.994Zm0 3.988a.15.15 0 1 0-.3 0v1.994a.15.15 0 1 0 .3 0v-1.994Zm0 3.988a.151.151 0 0 0-.15-.15.15.15 0 0 0-.15.15v1.995c0 .082.067.15.15.15.082 0 .15-.068.15-.15v-1.995Zm0 3.989a.15.15 0 1 0-.3 0v1.994a.15.15 0 1 0 .3 0v-1.994Zm0 3.988a.15.15 0 1 0-.3 0v1.994a.15.15 0 1 0 .3 0v-1.994Zm0 3.988a.15.15 0 1 0-.3 0v1.994a.15.15 0 1 0 .3 0v-1.994Zm0 3.989a.15.15 0 1 0-.3 0v1.994a.15.15 0 1 0 .3 0v-1.994Zm0 3.988a.15.15 0 1 0-.3 0v1.994a.15.15 0 1 0 .3 0v-1.994Zm0 3.988a.15.15 0 1 0-.3 0v1.994a.15.15 0 1 0 .3 0v-1.994Zm0 3.988a.151.151 0 0 0-.15-.15.15.15 0 0 0-.15.15v1.995c0 .082.067.15.15.15.082 0 .15-.068.15-.15v-1.995Zm0 3.989a.15.15 0 1 0-.3 0v1.994a.15.15 0 1 0 .3 0v-1.994Zm0 3.988a.15.15 0 1 0-.3 0v1.994a.15.15 0 1 0 .3 0v-1.994Zm0 3.988a.15.15 0 1 0-.3 0v1.994a.15.15 0 1 0 .3 0v-1.994Zm0 3.989a.15.15 0 1 0-.3 0v1.994a.15.15 0 1 0 .3 0v-1.994Zm0 3.988a.15.15 0 1 0-.3 0v1.994a.15.15 0 1 0 .3 0v-1.994Zm0 3.988a.15.15 0 1 0-.3 0v1.994a.15.15 0 1 0 .3 0v-1.994Zm0 3.988a.151.151 0 0 0-.15-.15.15.15 0 0 0-.15.15v1.995c0 .082.067.15.15.15.082 0 .15-.068.15-.15v-1.995Zm0 3.989a.15.15 0 1 0-.3 0v1.994a.15.15 0 1 0 .3 0v-1.994Zm0 3.988a.15.15 0 1 0-.3 0v1.994a.15.15 0 1 0 .3 0v-1.994Zm0 3.988a.15.15 0 1 0-.3 0v1.994a.15.15 0 1 0 .3 0v-1.994Zm0 3.989a.15.15 0 1 0-.3 0v1.994a.15.15 0 1 0 .3 0v-1.994Zm0 3.988a.15.15 0 1 0-.3 0v1.994a.15.15 0 1 0 .3 0v-1.994Zm0 3.988a.15.15 0 1 0-.3 0v1.994a.15.15 0 1 0 .3 0v-1.994Zm0 3.988a.151.151 0 0 0-.15-.15.15.15 0 0 0-.15.15v1.995c0 .082.067.15.15.15.082 0 .15-.068.15-.15v-1.995Zm0 3.989a.15.15 0 1 0-.3 0v1.994a.15.15 0 1 0 .3 0v-1.994Zm0 3.988a.15.15 0 1 0-.3 0v1.994a.15.15 0 1 0 .3 0V226.3Zm0 3.988a.15.15 0 1 0-.3 0v1.994a.15.15 0 1 0 .3 0v-1.994Zm0 3.988a.151.151 0 0 0-.15-.15.15.15 0 0 0-.15.15v1.995c0 .082.067.15.15.15.082 0 .15-.068.15-.15v-1.995Zm0 3.989a.15.15 0 1 0-.3 0v1.994a.15.15 0 1 0 .3 0v-1.994Zm0 3.988a.15.15 0 1 0-.3 0v1.994a.15.15 0 1 0 .3 0v-1.994Zm0 3.988a.151.151 0 0 0-.15-.15.15.15 0 0 0-.15.15v1.995a.15.15 0 0 0 .3 0v-1.995Zm0 3.989a.15.15 0 1 0-.3 0v1.994a.15.15 0 1 0 .3 0v-1.994Zm0 3.988a.15.15 0 1 0-.3 0v1.994a.15.15 0 1 0 .3 0v-1.994Zm0 3.988a.15.15 0 1 0-.3 0v1.994a.15.15 0 1 0 .3 0v-1.994Zm0 3.988a.151.151 0 0 0-.15-.15.15.15 0 0 0-.15.15v1.995c0 .082.067.15.15.15.082 0 .15-.068.15-.15v-1.995Zm0 3.989a.15.15 0 1 0-.3 0v1.994a.15.15 0 1 0 .3 0v-1.994Zm0 3.988a.15.15 0 1 0-.3 0v1.994a.15.15 0 1 0 .3 0v-1.994Zm0 3.988a.15.15 0 1 0-.3 0v1.994a.15.15 0 1 0 .3 0v-1.994Zm0 3.989a.15.15 0 1 0-.3 0v1.994a.15.15 0 1 0 .3 0v-1.994Zm0 3.988a.15.15 0 1 0-.3 0v1.994a.15.15 0 1 0 .3 0v-1.994Zm0 3.988a.15.15 0 1 0-.3 0v1.994a.15.15 0 1 0 .3 0v-1.994Zm0 3.988a.151.151 0 0 0-.15-.15.15.15 0 0 0-.15.15v1.995c0 .082.067.15.15.15.082 0 .15-.068.15-.15v-1.995Zm0 3.989a.15.15 0 1 0-.3 0v1.994a.15.15 0 1 0 .3 0v-1.994Zm0 3.988a.15.15 0 1 0-.3 0v1.994a.15.15 0 1 0 .3 0v-1.994Zm0 3.988a.15.15 0 1 0-.3 0v1.994a.15.15 0 1 0 .3 0v-1.994Zm0 3.989a.15.15 0 1 0-.3 0v1.994a.15.15 0 1 0 .3 0v-1.994Zm0 3.988a.15.15 0 1 0-.3 0v1.994a.15.15 0 1 0 .3 0v-1.994Zm0 3.988a.15.15 0 1 0-.3 0v.998c0 .082.067.15.15.15.082 0 .15-.068.15-.15v-.998ZM111.221-12a.15.15 0 1 0-.3 0v.997a.15.15 0 1 0 .3 0V-12Zm0 2.991a.15.15 0 1 0-.3 0v1.994a.15.15 0 1 0 .3 0v-1.994Zm0 3.989a.15.15 0 1 0-.3 0v1.994a.15.15 0 1 0 .3 0V-5.02Zm0 3.988a.15.15 0 1 0-.3 0V.962a.15.15 0 1 0 .3 0v-1.994Zm0 3.988a.15.15 0 1 0-.3 0V4.95a.15.15 0 1 0 .3 0V2.956Zm0 3.988a.15.15 0 1 0-.3 0V8.94a.15.15 0 1 0 .3 0V6.944Zm0 3.989a.15.15 0 1 0-.3 0v1.994a.15.15 0 1 0 .3 0v-1.994Zm0 3.988a.15.15 0 1 0-.3 0v1.994a.15.15 0 1 0 .3 0v-1.994Zm0 3.988a.15.15 0 1 0-.3 0v1.994a.15.15 0 1 0 .3 0V18.91Zm0 3.989a.15.15 0 1 0-.3 0v1.994a.15.15 0 1 0 .3 0v-1.994Zm0 3.988a.15.15 0 1 0-.3 0v1.994a.15.15 0 1 0 .3 0v-1.994Zm0 3.988a.15.15 0 1 0-.3 0v1.994a.15.15 0 1 0 .3 0v-1.994Zm0 3.988a.15.15 0 1 0-.3 0v1.994a.15.15 0 1 0 .3 0v-1.994Zm0 3.989a.15.15 0 1 0-.3 0v1.994a.15.15 0 1 0 .3 0V38.85Zm0 3.988a.15.15 0 1 0-.3 0v1.994a.15.15 0 1 0 .3 0V42.84Zm0 3.988a.15.15 0 1 0-.3 0v1.994a.15.15 0 1 0 .3 0v-1.994Zm0 3.989a.15.15 0 1 0-.3 0v1.994a.15.15 0 1 0 .3 0v-1.994Zm0 3.988a.15.15 0 1 0-.3 0v1.994a.15.15 0 1 0 .3 0v-1.994Zm0 3.988a.15.15 0 1 0-.3 0v1.994a.15.15 0 1 0 .3 0v-1.994Zm0 3.988a.15.15 0 1 0-.3 0v1.995a.15.15 0 1 0 .3 0V62.78Zm0 3.989a.15.15 0 1 0-.3 0v1.994a.15.15 0 1 0 .3 0v-1.994Zm0 3.988a.15.15 0 1 0-.3 0v1.994a.15.15 0 1 0 .3 0v-1.994Zm0 3.988a.15.15 0 1 0-.3 0v1.994a.15.15 0 1 0 .3 0v-1.994Zm0 3.989a.15.15 0 1 0-.3 0v1.994a.15.15 0 1 0 .3 0v-1.994Zm0 3.988a.15.15 0 1 0-.3 0v1.994a.15.15 0 1 0 .3 0v-1.994Zm0 3.988a.15.15 0 1 0-.3 0v1.994a.15.15 0 1 0 .3 0V86.71Zm0 3.988a.15.15 0 1 0-.3 0v1.995a.15.15 0 1 0 .3 0v-1.995Zm0 3.989a.15.15 0 1 0-.3 0v1.994a.15.15 0 1 0 .3 0v-1.994Zm0 3.988a.15.15 0 1 0-.3 0v1.994a.15.15 0 1 0 .3 0v-1.994Zm0 3.988a.15.15 0 1 0-.3 0v1.994a.15.15 0 1 0 .3 0v-1.994Zm0 3.989a.15.15 0 1 0-.3 0v1.994c0 .082.067.15.15.15a.15.15 0 0 0 .15-.15v-1.994Zm0 3.988a.15.15 0 1 0-.3 0v1.994a.15.15 0 1 0 .3 0v-1.994Zm0 3.988a.15.15 0 1 0-.3 0v1.994a.15.15 0 1 0 .3 0v-1.994Zm0 3.988a.15.15 0 1 0-.3 0v1.994a.15.15 0 1 0 .3 0v-1.994Zm0 3.989a.15.15 0 1 0-.3 0v1.994a.15.15 0 1 0 .3 0v-1.994Zm0 3.988a.15.15 0 1 0-.3 0v1.994a.15.15 0 1 0 .3 0v-1.994Zm0 3.988a.15.15 0 1 0-.3 0v1.994a.15.15 0 1 0 .3 0v-1.994Zm0 3.988a.15.15 0 0 0-.15-.15.15.15 0 0 0-.15.15v1.995c0 .082.067.15.15.15a.15.15 0 0 0 .15-.15v-1.995Zm0 3.989a.15.15 0 1 0-.3 0v1.994a.15.15 0 1 0 .3 0v-1.994Zm0 3.988a.15.15 0 1 0-.3 0v1.994a.15.15 0 1 0 .3 0v-1.994Zm0 3.988a.15.15 0 1 0-.3 0v1.994a.15.15 0 1 0 .3 0v-1.994Zm0 3.989a.15.15 0 1 0-.3 0v1.994a.15.15 0 1 0 .3 0v-1.994Zm0 3.988a.15.15 0 1 0-.3 0v1.994a.15.15 0 1 0 .3 0v-1.994Zm0 3.988a.15.15 0 1 0-.3 0v1.994a.15.15 0 1 0 .3 0v-1.994Zm0 3.988a.15.15 0 0 0-.15-.15.15.15 0 0 0-.15.15v1.995c0 .082.067.15.15.15a.15.15 0 0 0 .15-.15v-1.995Zm0 3.989a.15.15 0 1 0-.3 0v1.994a.15.15 0 1 0 .3 0v-1.994Zm0 3.988a.15.15 0 1 0-.3 0v1.994a.15.15 0 1 0 .3 0v-1.994Zm0 3.988a.15.15 0 1 0-.3 0v1.994a.15.15 0 1 0 .3 0v-1.994Zm0 3.989a.15.15 0 1 0-.3 0v1.994a.15.15 0 1 0 .3 0v-1.994Zm0 3.988a.15.15 0 1 0-.3 0v1.994a.15.15 0 1 0 .3 0v-1.994Zm0 3.988a.15.15 0 1 0-.3 0v1.994a.15.15 0 1 0 .3 0v-1.994Zm0 3.988a.15.15 0 0 0-.15-.15.15.15 0 0 0-.15.15v1.995c0 .082.067.15.15.15a.15.15 0 0 0 .15-.15v-1.995Zm0 3.989a.15.15 0 1 0-.3 0v1.994a.15.15 0 1 0 .3 0v-1.994Zm0 3.988a.15.15 0 1 0-.3 0v1.994a.15.15 0 1 0 .3 0v-1.994Zm0 3.988a.15.15 0 1 0-.3 0v1.994a.15.15 0 1 0 .3 0v-1.994Zm0 3.989a.15.15 0 1 0-.3 0v1.994a.15.15 0 1 0 .3 0v-1.994Zm0 3.988a.15.15 0 1 0-.3 0v1.994a.15.15 0 1 0 .3 0v-1.994Zm0 3.988a.15.15 0 1 0-.3 0v1.994a.15.15 0 1 0 .3 0v-1.994Zm0 3.988a.15.15 0 0 0-.15-.15.15.15 0 0 0-.15.15v1.995c0 .082.067.15.15.15a.15.15 0 0 0 .15-.15v-1.995Zm0 3.989a.15.15 0 1 0-.3 0v1.994a.15.15 0 1 0 .3 0v-1.994Zm0 3.988a.15.15 0 1 0-.3 0v1.994a.15.15 0 1 0 .3 0V226.3Zm0 3.988a.15.15 0 1 0-.3 0v1.994a.15.15 0 1 0 .3 0v-1.994Zm0 3.988a.15.15 0 0 0-.15-.15.15.15 0 0 0-.15.15v1.995c0 .082.067.15.15.15a.15.15 0 0 0 .15-.15v-1.995Zm0 3.989a.15.15 0 1 0-.3 0v1.994a.15.15 0 1 0 .3 0v-1.994Zm0 3.988a.15.15 0 1 0-.3 0v1.994a.15.15 0 1 0 .3 0v-1.994Zm0 3.988a.15.15 0 0 0-.15-.15.15.15 0 0 0-.15.15v1.995a.15.15 0 0 0 .15.149.15.15 0 0 0 .15-.149v-1.995Zm0 3.989a.15.15 0 1 0-.3 0v1.994a.15.15 0 1 0 .3 0v-1.994Zm0 3.988a.15.15 0 1 0-.3 0v1.994a.15.15 0 1 0 .3 0v-1.994Zm0 3.988a.15.15 0 1 0-.3 0v1.994a.15.15 0 1 0 .3 0v-1.994Zm0 3.988a.15.15 0 0 0-.15-.15.15.15 0 0 0-.15.15v1.995c0 .082.067.15.15.15a.15.15 0 0 0 .15-.15v-1.995Zm0 3.989a.15.15 0 1 0-.3 0v1.994a.15.15 0 1 0 .3 0v-1.994Zm0 3.988a.15.15 0 1 0-.3 0v1.994a.15.15 0 1 0 .3 0v-1.994Zm0 3.988a.15.15 0 1 0-.3 0v1.994a.15.15 0 1 0 .3 0v-1.994Zm0 3.989a.15.15 0 1 0-.3 0v1.994a.15.15 0 1 0 .3 0v-1.994Zm0 3.988a.15.15 0 1 0-.3 0v1.994a.15.15 0 1 0 .3 0v-1.994Zm0 3.988a.15.15 0 1 0-.3 0v1.994a.15.15 0 1 0 .3 0v-1.994Zm0 3.988a.15.15 0 0 0-.15-.15.15.15 0 0 0-.15.15v1.995c0 .082.067.15.15.15a.15.15 0 0 0 .15-.15v-1.995Zm0 3.989a.15.15 0 1 0-.3 0v1.994a.15.15 0 1 0 .3 0v-1.994Zm0 3.988a.15.15 0 1 0-.3 0v1.994a.15.15 0 1 0 .3 0v-1.994Zm0 3.988a.15.15 0 1 0-.3 0v1.994a.15.15 0 1 0 .3 0v-1.994Zm0 3.989a.15.15 0 1 0-.3 0v1.994a.15.15 0 1 0 .3 0v-1.994Zm0 3.988a.15.15 0 1 0-.3 0v1.994a.15.15 0 1 0 .3 0v-1.994Zm0 3.988a.15.15 0 1 0-.3 0v.998c0 .082.067.15.15.15a.15.15 0 0 0 .15-.15v-.998ZM296.106-12.15a.15.15 0 0 1 .15.15v.997a.15.15 0 1 1-.3 0V-12a.15.15 0 0 1 .15-.15Zm0 2.991a.15.15 0 0 1 .15.15v1.994a.15.15 0 1 1-.3 0v-1.994a.15.15 0 0 1 .15-.15Zm0 3.989a.15.15 0 0 1 .15.15v1.994a.15.15 0 1 1-.3 0V-5.02a.15.15 0 0 1 .15-.15Zm0 3.988a.15.15 0 0 1 .15.15V.962a.15.15 0 1 1-.3 0v-1.994a.15.15 0 0 1 .15-.15Zm0 3.988a.15.15 0 0 1 .15.15V4.95a.15.15 0 1 1-.3 0V2.956a.15.15 0 0 1 .15-.15Zm0 3.988a.15.15 0 0 1 .15.15V8.94a.15.15 0 1 1-.3 0V6.944a.15.15 0 0 1 .15-.15Zm0 3.989a.15.15 0 0 1 .15.15v1.994a.15.15 0 1 1-.3 0v-1.994a.15.15 0 0 1 .15-.15Zm0 3.988a.15.15 0 0 1 .15.15v1.994a.15.15 0 1 1-.3 0v-1.994a.15.15 0 0 1 .15-.15Zm0 3.988a.15.15 0 0 1 .15.15v1.994a.15.15 0 1 1-.3 0V18.91a.15.15 0 0 1 .15-.15Zm0 3.988a.15.15 0 0 1 .15.15v1.995a.15.15 0 1 1-.3 0v-1.994a.15.15 0 0 1 .15-.15Zm0 3.989a.15.15 0 0 1 .15.15v1.994a.15.15 0 1 1-.3 0v-1.994a.15.15 0 0 1 .15-.15Zm0 3.988a.15.15 0 0 1 .15.15v1.994a.15.15 0 1 1-.3 0v-1.994a.15.15 0 0 1 .15-.15Zm0 3.988a.15.15 0 0 1 .15.15v1.994a.15.15 0 1 1-.3 0v-1.994a.15.15 0 0 1 .15-.15Zm0 3.989a.15.15 0 0 1 .15.15v1.994a.15.15 0 1 1-.3 0V38.85a.15.15 0 0 1 .15-.15Zm0 3.988a.15.15 0 0 1 .15.15v1.994a.15.15 0 1 1-.3 0V42.84a.15.15 0 0 1 .15-.15Zm0 3.988a.15.15 0 0 1 .15.15v1.994a.15.15 0 1 1-.3 0v-1.994a.15.15 0 0 1 .15-.15Zm0 3.989a.15.15 0 0 1 .15.15v1.994a.15.15 0 1 1-.3 0v-1.994a.15.15 0 0 1 .15-.15Zm0 3.988a.15.15 0 0 1 .15.15v1.994a.15.15 0 1 1-.3 0v-1.994a.15.15 0 0 1 .15-.15Zm0 3.988a.15.15 0 0 1 .15.15v1.994a.15.15 0 1 1-.3 0v-1.994a.15.15 0 0 1 .15-.15Zm0 3.988a.15.15 0 0 1 .15.15v1.995a.15.15 0 1 1-.3 0V62.78a.15.15 0 0 1 .15-.15Zm0 3.989a.15.15 0 0 1 .15.15v1.994a.15.15 0 1 1-.3 0v-1.994a.15.15 0 0 1 .15-.15Zm0 3.988a.15.15 0 0 1 .15.15v1.994a.15.15 0 1 1-.3 0v-1.994a.15.15 0 0 1 .15-.15Zm0 3.988a.15.15 0 0 1 .15.15v1.994a.15.15 0 1 1-.3 0v-1.994a.15.15 0 0 1 .15-.15Zm0 3.989a.15.15 0 0 1 .15.15v1.994a.15.15 0 1 1-.3 0v-1.994a.15.15 0 0 1 .15-.15Zm0 3.988a.15.15 0 0 1 .15.15v1.994a.15.15 0 1 1-.3 0v-1.994a.15.15 0 0 1 .15-.15Zm0 3.988a.15.15 0 0 1 .15.15v1.994a.15.15 0 1 1-.3 0V86.71a.15.15 0 0 1 .15-.15Zm0 3.988a.15.15 0 0 1 .15.15v1.995a.15.15 0 1 1-.3 0v-1.995a.15.15 0 0 1 .15-.15Zm0 3.989a.15.15 0 0 1 .15.15v1.994a.15.15 0 1 1-.3 0v-1.994a.15.15 0 0 1 .15-.15Zm0 3.988a.15.15 0 0 1 .15.15v1.994a.15.15 0 1 1-.3 0v-1.994a.15.15 0 0 1 .15-.15Zm0 3.988a.15.15 0 0 1 .15.15v1.994a.15.15 0 1 1-.3 0v-1.994a.15.15 0 0 1 .15-.15Zm0 3.989a.15.15 0 0 1 .15.15v1.994a.15.15 0 0 1-.15.15.15.15 0 0 1-.15-.15v-1.994a.15.15 0 0 1 .15-.15Zm0 3.988a.15.15 0 0 1 .15.15v1.994a.15.15 0 1 1-.3 0v-1.994a.15.15 0 0 1 .15-.15Zm0 3.988a.15.15 0 0 1 .15.15v1.994a.15.15 0 1 1-.3 0v-1.994a.15.15 0 0 1 .15-.15Zm0 3.988a.15.15 0 0 1 .15.15v1.994a.15.15 0 1 1-.3 0v-1.994a.15.15 0 0 1 .15-.15Zm0 3.989a.15.15 0 0 1 .15.15v1.994a.15.15 0 1 1-.3 0v-1.994a.15.15 0 0 1 .15-.15Zm0 3.988a.15.15 0 0 1 .15.15v1.994a.15.15 0 1 1-.3 0v-1.994a.15.15 0 0 1 .15-.15Zm0 3.988a.15.15 0 0 1 .15.15v1.994a.15.15 0 1 1-.3 0v-1.994a.15.15 0 0 1 .15-.15Zm0 3.988a.15.15 0 0 1 .15.15v1.995a.15.15 0 0 1-.15.15.15.15 0 0 1-.15-.15v-1.995a.15.15 0 0 1 .15-.15Zm0 3.989a.15.15 0 0 1 .15.15v1.994a.15.15 0 1 1-.3 0v-1.994a.15.15 0 0 1 .15-.15Zm0 3.988a.15.15 0 0 1 .15.15v1.994a.15.15 0 1 1-.3 0v-1.994a.15.15 0 0 1 .15-.15Zm0 3.988a.15.15 0 0 1 .15.15v1.994a.15.15 0 1 1-.3 0v-1.994a.15.15 0 0 1 .15-.15Zm0 3.989a.15.15 0 0 1 .15.15v1.994a.15.15 0 1 1-.3 0v-1.994a.15.15 0 0 1 .15-.15Zm0 3.988a.15.15 0 0 1 .15.15v1.994a.15.15 0 1 1-.3 0v-1.994a.15.15 0 0 1 .15-.15Zm0 3.988a.15.15 0 0 1 .15.15v1.994a.15.15 0 1 1-.3 0v-1.994a.15.15 0 0 1 .15-.15Zm0 3.988a.15.15 0 0 1 .15.15v1.995a.15.15 0 0 1-.15.15.15.15 0 0 1-.15-.15v-1.995a.15.15 0 0 1 .15-.15Zm0 3.989a.15.15 0 0 1 .15.15v1.994a.15.15 0 1 1-.3 0v-1.994a.15.15 0 0 1 .15-.15Zm0 3.988a.15.15 0 0 1 .15.15v1.994a.15.15 0 1 1-.3 0v-1.994a.15.15 0 0 1 .15-.15Zm0 3.988a.15.15 0 0 1 .15.15v1.994a.15.15 0 1 1-.3 0v-1.994a.15.15 0 0 1 .15-.15Zm0 3.989a.15.15 0 0 1 .15.15v1.994a.15.15 0 1 1-.3 0v-1.994a.15.15 0 0 1 .15-.15Zm0 3.988a.15.15 0 0 1 .15.15v1.994a.15.15 0 1 1-.3 0v-1.994a.15.15 0 0 1 .15-.15Zm0 3.988a.15.15 0 0 1 .15.15v1.994a.15.15 0 1 1-.3 0v-1.994a.15.15 0 0 1 .15-.15Zm0 3.988a.15.15 0 0 1 .15.15v1.995a.15.15 0 0 1-.15.15.15.15 0 0 1-.15-.15v-1.995a.15.15 0 0 1 .15-.15Zm0 3.989a.15.15 0 0 1 .15.15v1.994a.15.15 0 1 1-.3 0v-1.994a.15.15 0 0 1 .15-.15Zm0 3.988a.15.15 0 0 1 .15.15v1.994a.15.15 0 1 1-.3 0v-1.994a.15.15 0 0 1 .15-.15Zm0 3.988a.15.15 0 0 1 .15.15v1.994a.15.15 0 1 1-.3 0v-1.994a.15.15 0 0 1 .15-.15Zm0 3.989a.15.15 0 0 1 .15.15v1.994a.15.15 0 1 1-.3 0v-1.994a.15.15 0 0 1 .15-.15Zm0 3.988a.15.15 0 0 1 .15.15v1.994a.15.15 0 1 1-.3 0v-1.994a.15.15 0 0 1 .15-.15Zm0 3.988a.15.15 0 0 1 .15.15v1.994a.15.15 0 1 1-.3 0v-1.994a.15.15 0 0 1 .15-.15Zm0 3.988a.15.15 0 0 1 .15.15v1.995a.15.15 0 0 1-.15.15.15.15 0 0 1-.15-.15v-1.995a.15.15 0 0 1 .15-.15Zm0 3.989a.15.15 0 0 1 .15.15v1.994a.15.15 0 1 1-.3 0v-1.994a.15.15 0 0 1 .15-.15Zm0 3.988a.15.15 0 0 1 .15.15v1.994a.15.15 0 1 1-.3 0V226.3a.15.15 0 0 1 .15-.15Zm0 3.988a.15.15 0 0 1 .15.15v1.994a.15.15 0 1 1-.3 0v-1.994a.15.15 0 0 1 .15-.15Zm0 3.988a.15.15 0 0 1 .15.15v1.995a.15.15 0 0 1-.15.15.15.15 0 0 1-.15-.15v-1.995a.15.15 0 0 1 .15-.15Zm0 3.989a.15.15 0 0 1 .15.15v1.994a.15.15 0 1 1-.3 0v-1.994a.15.15 0 0 1 .15-.15Zm0 3.988a.15.15 0 0 1 .15.15v1.994a.15.15 0 1 1-.3 0v-1.994a.15.15 0 0 1 .15-.15Zm0 3.988a.15.15 0 0 1 .15.15v1.995a.15.15 0 0 1-.15.149.15.15 0 0 1-.15-.149v-1.995a.15.15 0 0 1 .15-.15Zm0 3.989a.15.15 0 0 1 .15.15v1.994a.15.15 0 1 1-.3 0v-1.994a.15.15 0 0 1 .15-.15Zm0 3.988a.15.15 0 0 1 .15.15v1.994a.15.15 0 1 1-.3 0v-1.994a.15.15 0 0 1 .15-.15Zm0 3.988a.15.15 0 0 1 .15.15v1.994a.15.15 0 1 1-.3 0v-1.994a.15.15 0 0 1 .15-.15Zm0 3.988a.15.15 0 0 1 .15.15v1.995a.15.15 0 0 1-.15.15.15.15 0 0 1-.15-.15v-1.995a.15.15 0 0 1 .15-.15Zm0 3.989a.15.15 0 0 1 .15.15v1.994a.15.15 0 1 1-.3 0v-1.994a.15.15 0 0 1 .15-.15Zm0 3.988a.15.15 0 0 1 .15.15v1.994a.15.15 0 1 1-.3 0v-1.994a.15.15 0 0 1 .15-.15Zm0 3.988a.15.15 0 0 1 .15.15v1.994a.15.15 0 1 1-.3 0v-1.994a.15.15 0 0 1 .15-.15Zm0 3.989a.15.15 0 0 1 .15.15v1.994a.15.15 0 1 1-.3 0v-1.994a.15.15 0 0 1 .15-.15Zm0 3.988a.15.15 0 0 1 .15.15v1.994a.15.15 0 1 1-.3 0v-1.994a.15.15 0 0 1 .15-.15Zm0 3.988a.15.15 0 0 1 .15.15v1.994a.15.15 0 1 1-.3 0v-1.994a.15.15 0 0 1 .15-.15Zm0 3.988a.15.15 0 0 1 .15.15v1.995a.15.15 0 0 1-.15.15.15.15 0 0 1-.15-.15v-1.995a.15.15 0 0 1 .15-.15Zm0 3.989a.15.15 0 0 1 .15.15v1.994a.15.15 0 1 1-.3 0v-1.994a.15.15 0 0 1 .15-.15Zm0 3.988a.15.15 0 0 1 .15.15v1.994a.15.15 0 1 1-.3 0v-1.994a.15.15 0 0 1 .15-.15Zm0 3.988a.15.15 0 0 1 .15.15v1.994a.15.15 0 1 1-.3 0v-1.994a.15.15 0 0 1 .15-.15Zm0 3.989a.15.15 0 0 1 .15.15v1.994a.15.15 0 1 1-.3 0v-1.994a.15.15 0 0 1 .15-.15Zm0 3.988a.15.15 0 0 1 .15.15v1.994a.15.15 0 1 1-.3 0v-1.994a.15.15 0 0 1 .15-.15Zm0 3.988a.15.15 0 0 1 .15.15v.998a.15.15 0 0 1-.15.15.15.15 0 0 1-.15-.15v-.998a.15.15 0 0 1 .15-.15ZM303.64-12a.15.15 0 1 0-.3 0v.997a.15.15 0 1 0 .3 0V-12Zm0 2.991a.15.15 0 1 0-.3 0v1.994a.15.15 0 1 0 .3 0v-1.994Zm0 3.989a.15.15 0 1 0-.3 0v1.994a.15.15 0 1 0 .3 0V-5.02Zm0 3.988a.15.15 0 1 0-.3 0V.962a.15.15 0 1 0 .3 0v-1.994Zm0 3.988a.15.15 0 1 0-.3 0V4.95a.15.15 0 1 0 .3 0V2.956Zm0 3.988a.15.15 0 1 0-.3 0V8.94a.15.15 0 1 0 .3 0V6.944Zm0 3.989a.15.15 0 1 0-.3 0v1.994a.15.15 0 1 0 .3 0v-1.994Zm0 3.988a.15.15 0 1 0-.3 0v1.994a.15.15 0 1 0 .3 0v-1.994Zm0 3.988a.15.15 0 1 0-.3 0v1.994a.15.15 0 1 0 .3 0V18.91Zm0 3.989a.15.15 0 1 0-.3 0v1.994a.15.15 0 1 0 .3 0v-1.994Zm0 3.988a.15.15 0 1 0-.3 0v1.994a.15.15 0 1 0 .3 0v-1.994Zm0 3.988a.15.15 0 1 0-.3 0v1.994a.15.15 0 1 0 .3 0v-1.994Zm0 3.988a.15.15 0 1 0-.3 0v1.994a.15.15 0 1 0 .3 0v-1.994Zm0 3.989a.15.15 0 1 0-.3 0v1.994a.15.15 0 1 0 .3 0V38.85Zm0 3.988a.15.15 0 1 0-.3 0v1.994a.15.15 0 1 0 .3 0V42.84Zm0 3.988a.15.15 0 1 0-.3 0v1.994a.15.15 0 1 0 .3 0v-1.994Zm0 3.989a.15.15 0 1 0-.3 0v1.994a.15.15 0 1 0 .3 0v-1.994Zm0 3.988a.15.15 0 1 0-.3 0v1.994a.15.15 0 1 0 .3 0v-1.994Zm0 3.988a.15.15 0 1 0-.3 0v1.994a.15.15 0 1 0 .3 0v-1.994Zm0 3.988a.15.15 0 1 0-.3 0v1.995a.15.15 0 1 0 .3 0V62.78Zm0 3.989a.15.15 0 1 0-.3 0v1.994a.15.15 0 1 0 .3 0v-1.994Zm0 3.988a.15.15 0 1 0-.3 0v1.994a.15.15 0 1 0 .3 0v-1.994Zm0 3.988a.15.15 0 1 0-.3 0v1.994a.15.15 0 1 0 .3 0v-1.994Zm0 3.989a.15.15 0 1 0-.3 0v1.994a.15.15 0 1 0 .3 0v-1.994Zm0 3.988a.15.15 0 1 0-.3 0v1.994a.15.15 0 1 0 .3 0v-1.994Zm0 3.988a.15.15 0 1 0-.3 0v1.994a.15.15 0 1 0 .3 0V86.71Zm0 3.988a.15.15 0 1 0-.3 0v1.995a.15.15 0 1 0 .3 0v-1.995Zm0 3.989a.15.15 0 1 0-.3 0v1.994a.15.15 0 1 0 .3 0v-1.994Zm0 3.988a.15.15 0 1 0-.3 0v1.994a.15.15 0 1 0 .3 0v-1.994Zm0 3.988a.15.15 0 1 0-.3 0v1.994a.15.15 0 1 0 .3 0v-1.994Zm0 3.989a.15.15 0 1 0-.3 0v1.994c0 .082.067.15.15.15a.15.15 0 0 0 .15-.15v-1.994Zm0 3.988a.15.15 0 1 0-.3 0v1.994a.15.15 0 1 0 .3 0v-1.994Zm0 3.988a.15.15 0 1 0-.3 0v1.994a.15.15 0 1 0 .3 0v-1.994Zm0 3.988a.15.15 0 1 0-.3 0v1.994a.15.15 0 1 0 .3 0v-1.994Zm0 3.989a.15.15 0 1 0-.3 0v1.994a.15.15 0 1 0 .3 0v-1.994Zm0 3.988a.15.15 0 1 0-.3 0v1.994a.15.15 0 1 0 .3 0v-1.994Zm0 3.988a.15.15 0 1 0-.3 0v1.994a.15.15 0 1 0 .3 0v-1.994Zm0 3.988a.15.15 0 0 0-.15-.15.15.15 0 0 0-.15.15v1.995c0 .082.067.15.15.15a.15.15 0 0 0 .15-.15v-1.995Zm0 3.989a.15.15 0 1 0-.3 0v1.994a.15.15 0 1 0 .3 0v-1.994Zm0 3.988a.15.15 0 1 0-.3 0v1.994a.15.15 0 1 0 .3 0v-1.994Zm0 3.988a.15.15 0 1 0-.3 0v1.994a.15.15 0 1 0 .3 0v-1.994Zm0 3.989a.15.15 0 1 0-.3 0v1.994a.15.15 0 1 0 .3 0v-1.994Zm0 3.988a.15.15 0 1 0-.3 0v1.994a.15.15 0 1 0 .3 0v-1.994Zm0 3.988a.15.15 0 1 0-.3 0v1.994a.15.15 0 1 0 .3 0v-1.994Zm0 3.988a.15.15 0 0 0-.15-.15.15.15 0 0 0-.15.15v1.995c0 .082.067.15.15.15a.15.15 0 0 0 .15-.15v-1.995Zm0 3.989a.15.15 0 1 0-.3 0v1.994a.15.15 0 1 0 .3 0v-1.994Zm0 3.988a.15.15 0 1 0-.3 0v1.994a.15.15 0 1 0 .3 0v-1.994Zm0 3.988a.15.15 0 1 0-.3 0v1.994a.15.15 0 1 0 .3 0v-1.994Zm0 3.989a.15.15 0 1 0-.3 0v1.994a.15.15 0 1 0 .3 0v-1.994Zm0 3.988a.15.15 0 1 0-.3 0v1.994a.15.15 0 1 0 .3 0v-1.994Zm0 3.988a.15.15 0 1 0-.3 0v1.994a.15.15 0 1 0 .3 0v-1.994Zm0 3.988a.15.15 0 0 0-.15-.15.15.15 0 0 0-.15.15v1.995c0 .082.067.15.15.15a.15.15 0 0 0 .15-.15v-1.995Zm0 3.989a.15.15 0 1 0-.3 0v1.994a.15.15 0 1 0 .3 0v-1.994Zm0 3.988a.15.15 0 1 0-.3 0v1.994a.15.15 0 1 0 .3 0v-1.994Zm0 3.988a.15.15 0 1 0-.3 0v1.994a.15.15 0 1 0 .3 0v-1.994Zm0 3.989a.15.15 0 1 0-.3 0v1.994a.15.15 0 1 0 .3 0v-1.994Zm0 3.988a.15.15 0 1 0-.3 0v1.994a.15.15 0 1 0 .3 0v-1.994Zm0 3.988a.15.15 0 1 0-.3 0v1.994a.15.15 0 1 0 .3 0v-1.994Zm0 3.988a.15.15 0 0 0-.15-.15.15.15 0 0 0-.15.15v1.995c0 .082.067.15.15.15a.15.15 0 0 0 .15-.15v-1.995Zm0 3.989a.15.15 0 1 0-.3 0v1.994a.15.15 0 1 0 .3 0v-1.994Zm0 3.988a.15.15 0 1 0-.3 0v1.994a.15.15 0 1 0 .3 0V226.3Zm0 3.988a.15.15 0 1 0-.3 0v1.994a.15.15 0 1 0 .3 0v-1.994Zm0 3.988a.15.15 0 0 0-.15-.15.15.15 0 0 0-.15.15v1.995c0 .082.067.15.15.15a.15.15 0 0 0 .15-.15v-1.995Zm0 3.989a.15.15 0 1 0-.3 0v1.994a.15.15 0 1 0 .3 0v-1.994Zm0 3.988a.15.15 0 1 0-.3 0v1.994a.15.15 0 1 0 .3 0v-1.994Zm0 3.988a.15.15 0 0 0-.15-.15.15.15 0 0 0-.15.15v1.995a.15.15 0 0 0 .15.149.15.15 0 0 0 .15-.149v-1.995Zm0 3.989a.15.15 0 1 0-.3 0v1.994a.15.15 0 1 0 .3 0v-1.994Zm0 3.988a.15.15 0 1 0-.3 0v1.994a.15.15 0 1 0 .3 0v-1.994Zm0 3.988a.15.15 0 1 0-.3 0v1.994a.15.15 0 1 0 .3 0v-1.994Zm0 3.988a.15.15 0 0 0-.15-.15.15.15 0 0 0-.15.15v1.995c0 .082.067.15.15.15a.15.15 0 0 0 .15-.15v-1.995Zm0 3.989a.15.15 0 1 0-.3 0v1.994a.15.15 0 1 0 .3 0v-1.994Zm0 3.988a.15.15 0 1 0-.3 0v1.994a.15.15 0 1 0 .3 0v-1.994Zm0 3.988a.15.15 0 1 0-.3 0v1.994a.15.15 0 1 0 .3 0v-1.994Zm0 3.989a.15.15 0 1 0-.3 0v1.994a.15.15 0 1 0 .3 0v-1.994Zm0 3.988a.15.15 0 1 0-.3 0v1.994a.15.15 0 1 0 .3 0v-1.994Zm0 3.988a.15.15 0 1 0-.3 0v1.994a.15.15 0 1 0 .3 0v-1.994Zm0 3.988a.15.15 0 0 0-.15-.15.15.15 0 0 0-.15.15v1.995c0 .082.067.15.15.15a.15.15 0 0 0 .15-.15v-1.995Zm0 3.989a.15.15 0 1 0-.3 0v1.994a.15.15 0 1 0 .3 0v-1.994Zm0 3.988a.15.15 0 1 0-.3 0v1.994a.15.15 0 1 0 .3 0v-1.994Zm0 3.988a.15.15 0 1 0-.3 0v1.994a.15.15 0 1 0 .3 0v-1.994Zm0 3.989a.15.15 0 1 0-.3 0v1.994a.15.15 0 1 0 .3 0v-1.994Zm0 3.988a.15.15 0 1 0-.3 0v1.994a.15.15 0 1 0 .3 0v-1.994Zm0 3.988a.15.15 0 1 0-.3 0v.998c0 .082.067.15.15.15a.15.15 0 0 0 .15-.15v-.998Z"
    clip-rule="evenodd"
  />
  <path
    stroke="#fff"
    stroke-dasharray="2 2"
    stroke-linecap="round"
    stroke-linejoin="round"
    stroke-opacity=".2"
    stroke-width=".3"
    d="M401 180.575H0M401 116.3H0M401 187.959H0M401 123.683H0M401 52.3H0M401 59.683H0"
  />
  <g class="logo" filter="url(#base-b)">
    <rect
      width="184.368"
      height="184.368"
      x="111.586"
      y="59.945"
      fill="#171717"
      rx="32"
    />
  </g>
  <rect
    width="184.868"
    height="184.868"
    x="111.336"
    y="59.695"
    stroke="url(#base-c)"
    stroke-linecap="round"
    stroke-linejoin="round"
    stroke-width=".5"
    class="logo"
    rx="32.25"
  />
  <path
    fill="url(#base-d)"
    fill-opacity=".3"
    fill-rule="evenodd"
    d="M168.482 59.945a.15.15 0 1 0-.3 0v.995a.15.15 0 1 0 .3 0v-.995Zm0 2.986a.15.15 0 1 0-.3 0v1.99a.15.15 0 1 0 .3 0v-1.99Zm0 3.982a.15.15 0 1 0-.3 0v1.99a.15.15 0 1 0 .3 0v-1.99Zm0 3.981a.15.15 0 1 0-.3 0v1.991a.15.15 0 1 0 .3 0v-1.99Zm0 3.982a.15.15 0 1 0-.3 0v1.99a.15.15 0 1 0 .3 0v-1.99Zm0 3.981a.15.15 0 1 0-.3 0v1.991a.15.15 0 1 0 .3 0v-1.99Zm0 3.982a.15.15 0 1 0-.3 0v1.99a.15.15 0 1 0 .3 0v-1.99Zm0 3.981a.15.15 0 1 0-.3 0v1.991a.15.15 0 1 0 .3 0v-1.99Zm0 3.982a.15.15 0 1 0-.3 0v1.99a.15.15 0 1 0 .3 0v-1.99Zm0 3.981a.15.15 0 1 0-.3 0v1.991a.15.15 0 1 0 .3 0v-1.99Zm0 3.982a.15.15 0 1 0-.3 0v1.991c0 .082.067.15.15.15a.15.15 0 0 0 .15-.15v-1.991Zm0 3.981a.15.15 0 1 0-.3 0v1.991a.15.15 0 1 0 .3 0v-1.991Zm0 3.982a.15.15 0 1 0-.3 0v1.991c0 .082.067.15.15.15a.15.15 0 0 0 .15-.15v-1.991Zm0 3.981a.15.15 0 1 0-.3 0v1.991a.15.15 0 1 0 .3 0v-1.991Zm0 3.982a.15.15 0 1 0-.3 0v1.459h-1.518a.15.15 0 0 0-.15.15c0 .082.068.15.15.15h1.518v.232c0 .082.067.15.15.15a.15.15 0 0 0 .15-.15v-.232h.191c.082 0 .15-.068.15-.15a.15.15 0 0 0-.15-.15h-.191v-1.459Zm0 3.981a.15.15 0 0 0-.15-.15.15.15 0 0 0-.15.15v1.991a.15.15 0 1 0 .3 0v-1.991Zm0 3.982a.15.15 0 1 0-.3 0v.879h-1.518a.15.15 0 0 0-.15.15c0 .083.068.15.15.15h1.518v.812c0 .082.067.15.15.15a.15.15 0 0 0 .15-.15v-.812h.191a.15.15 0 0 0 .15-.15.15.15 0 0 0-.15-.15h-.191v-.879Zm0 3.981a.15.15 0 0 0-.15-.15.15.15 0 0 0-.15.15v1.991a.15.15 0 1 0 .3 0v-1.991Zm0 3.982a.15.15 0 1 0-.3 0v1.991c0 .082.067.15.15.15a.15.15 0 0 0 .15-.15v-1.991Zm0 3.981a.15.15 0 0 0-.15-.15.15.15 0 0 0-.15.15v1.991a.15.15 0 1 0 .3 0v-1.991Zm0 3.982a.15.15 0 1 0-.3 0v1.991c0 .082.067.15.15.15a.15.15 0 0 0 .15-.15v-1.991Zm0 3.981a.15.15 0 0 0-.15-.15.15.15 0 0 0-.15.15v1.991a.15.15 0 1 0 .3 0v-1.991Zm0 3.982a.15.15 0 1 0-.3 0v1.991c0 .082.067.15.15.15a.15.15 0 0 0 .15-.15v-1.991Zm0 3.981a.15.15 0 0 0-.15-.15.15.15 0 0 0-.15.15v1.991a.15.15 0 1 0 .3 0v-1.991Zm0 3.982a.15.15 0 1 0-.3 0v1.991a.15.15 0 1 0 .3 0v-1.991Zm0 3.981a.15.15 0 0 0-.15-.15.15.15 0 0 0-.15.15v1.991a.15.15 0 1 0 .3 0v-1.991Zm0 3.982a.15.15 0 1 0-.3 0v1.991a.15.15 0 1 0 .3 0v-1.991Zm0 3.981a.15.15 0 0 0-.15-.15.15.15 0 0 0-.15.15v1.991a.15.15 0 1 0 .3 0v-1.991Zm0 3.982a.15.15 0 1 0-.3 0v1.991a.15.15 0 1 0 .3 0v-1.991Zm0 3.981a.15.15 0 0 0-.15-.15.15.15 0 0 0-.15.15v1.991a.15.15 0 1 0 .3 0v-1.991Zm0 3.982a.15.15 0 1 0-.3 0v1.991c0 .013.002.027.005.039h-1.523a.15.15 0 0 0-.15.15c0 .083.068.15.15.15h2.008a.15.15 0 1 0 0-.3h-.196a.127.127 0 0 0 .006-.039v-1.991Zm0 3.981a.15.15 0 0 0-.15-.15.15.15 0 0 0-.15.15v1.991a.15.15 0 1 0 .3 0v-1.991Zm0 3.982a.15.15 0 1 0-.3 0v1.451h-1.518a.15.15 0 0 0-.15.15c0 .083.068.15.15.15h1.518v.24a.15.15 0 1 0 .3 0v-.24h.19a.15.15 0 1 0 0-.3h-.19v-1.451Zm0 3.981a.15.15 0 0 0-.15-.15.15.15 0 0 0-.15.15v1.991a.15.15 0 1 0 .3 0v-1.991Zm0 3.982a.15.15 0 1 0-.3 0v1.991a.15.15 0 1 0 .3 0v-1.991Zm0 3.981a.15.15 0 0 0-.15-.15.15.15 0 0 0-.15.15v1.991a.15.15 0 1 0 .3 0v-1.991Zm0 3.982a.15.15 0 1 0-.3 0v1.991a.15.15 0 1 0 .3 0v-1.991Zm0 3.981a.15.15 0 0 0-.15-.15.15.15 0 0 0-.15.15v1.991a.15.15 0 1 0 .3 0v-1.991Zm0 3.982a.15.15 0 1 0-.3 0v1.991a.15.15 0 1 0 .3 0v-1.991Zm0 3.982a.15.15 0 0 0-.15-.151.15.15 0 0 0-.15.151v1.99a.15.15 0 1 0 .3 0v-1.99Zm0 3.981a.15.15 0 1 0-.3 0v1.991a.15.15 0 1 0 .3 0v-1.991Zm0 3.982a.15.15 0 1 0-.3 0v1.99a.15.15 0 1 0 .3 0v-1.99Zm0 3.981a.15.15 0 1 0-.3 0v1.991a.15.15 0 1 0 .3 0v-1.991Zm0 3.982a.15.15 0 1 0-.3 0v1.99a.15.15 0 1 0 .3 0v-1.99Zm0 3.981a.15.15 0 1 0-.3 0v1.991a.15.15 0 1 0 .3 0v-1.991Zm0 3.982a.15.15 0 1 0-.3 0v1.99a.15.15 0 1 0 .3 0v-1.99Zm0 3.981a.15.15 0 1 0-.3 0v.996c0 .082.067.15.15.15a.15.15 0 0 0 .15-.15v-.996Zm63.581-182.154a.15.15 0 1 0-.3 0v.995a.15.15 0 1 0 .3 0v-.995Zm0 2.986a.15.15 0 1 0-.3 0v1.99a.15.15 0 1 0 .3 0v-1.99Zm0 3.982a.15.15 0 1 0-.3 0v1.99a.15.15 0 1 0 .3 0v-1.99Zm0 3.981a.15.15 0 1 0-.3 0v1.991a.15.15 0 1 0 .3 0v-1.99Zm0 3.982a.15.15 0 1 0-.3 0v1.99a.15.15 0 1 0 .3 0v-1.99Zm0 3.981a.15.15 0 1 0-.3 0v1.991a.15.15 0 1 0 .3 0v-1.99Zm0 3.982a.15.15 0 1 0-.3 0v1.99a.15.15 0 1 0 .3 0v-1.99Zm0 3.981a.15.15 0 1 0-.3 0v1.991a.15.15 0 1 0 .3 0v-1.99Zm0 3.982a.15.15 0 1 0-.3 0v1.99a.15.15 0 1 0 .3 0v-1.99Zm0 3.981a.15.15 0 1 0-.3 0v1.991a.15.15 0 1 0 .3 0v-1.99Zm0 3.982a.15.15 0 1 0-.3 0v1.991c0 .082.067.15.15.15a.15.15 0 0 0 .15-.15v-1.991Zm0 3.981a.15.15 0 1 0-.3 0v1.991a.15.15 0 1 0 .3 0v-1.991Zm0 3.982a.15.15 0 1 0-.3 0v1.991c0 .082.067.15.15.15a.15.15 0 0 0 .15-.15v-1.991Zm0 3.981a.15.15 0 1 0-.3 0v1.991a.15.15 0 1 0 .3 0v-1.991Zm0 3.982a.15.15 0 1 0-.3 0v1.459h-.839a.15.15 0 1 0 0 .3h.839v.232c0 .082.067.15.15.15a.15.15 0 0 0 .15-.15v-.232h.869a.15.15 0 1 0 0-.3h-.869v-1.459Zm0 3.981a.15.15 0 0 0-.15-.15.15.15 0 0 0-.15.15v1.991a.15.15 0 1 0 .3 0v-1.991Zm0 3.982a.15.15 0 1 0-.3 0v.879h-.839a.15.15 0 1 0 0 .3h.839v.812c0 .082.067.15.15.15a.15.15 0 0 0 .15-.15v-.812h.869a.15.15 0 1 0 0-.3h-.869v-.879Zm0 3.981a.15.15 0 0 0-.15-.15.15.15 0 0 0-.15.15v1.991a.15.15 0 1 0 .3 0v-1.991Zm0 3.982a.15.15 0 1 0-.3 0v1.991c0 .082.067.15.15.15a.15.15 0 0 0 .15-.15v-1.991Zm0 3.981a.15.15 0 0 0-.15-.15.15.15 0 0 0-.15.15v1.991a.15.15 0 1 0 .3 0v-1.991Zm0 3.982a.15.15 0 1 0-.3 0v1.991c0 .082.067.15.15.15a.15.15 0 0 0 .15-.15v-1.991Zm0 3.981a.15.15 0 0 0-.15-.15.15.15 0 0 0-.15.15v1.991a.15.15 0 1 0 .3 0v-1.991Zm0 3.982a.15.15 0 1 0-.3 0v1.991c0 .082.067.15.15.15a.15.15 0 0 0 .15-.15v-1.991Zm0 3.981a.15.15 0 0 0-.15-.15.15.15 0 0 0-.15.15v1.991a.15.15 0 1 0 .3 0v-1.991Zm0 3.982a.15.15 0 1 0-.3 0v1.991a.15.15 0 1 0 .3 0v-1.991Zm0 3.981a.15.15 0 0 0-.15-.15.15.15 0 0 0-.15.15v1.991a.15.15 0 1 0 .3 0v-1.991Zm0 3.982a.15.15 0 1 0-.3 0v1.991a.15.15 0 1 0 .3 0v-1.991Zm0 3.981a.15.15 0 0 0-.15-.15.15.15 0 0 0-.15.15v1.991a.15.15 0 1 0 .3 0v-1.991Zm0 3.982a.15.15 0 1 0-.3 0v1.991a.15.15 0 1 0 .3 0v-1.991Zm0 3.981a.15.15 0 0 0-.15-.15.15.15 0 0 0-.15.15v1.991a.15.15 0 1 0 .3 0v-1.991Zm0 3.982a.15.15 0 1 0-.3 0v1.991c0 .013.002.027.005.039h-.844a.15.15 0 1 0 0 .3h2.008a.15.15 0 1 0 0-.3h-.874a.167.167 0 0 0 .005-.039v-1.991Zm0 3.981a.15.15 0 0 0-.15-.15.15.15 0 0 0-.15.15v1.991a.15.15 0 1 0 .3 0v-1.991Zm0 3.982a.15.15 0 1 0-.3 0v1.451h-.839a.15.15 0 1 0 0 .3h.839v.24a.15.15 0 1 0 .3 0v-.24h.869a.15.15 0 1 0 0-.3h-.869v-1.451Zm0 3.981a.15.15 0 0 0-.15-.15.15.15 0 0 0-.15.15v1.991a.15.15 0 1 0 .3 0v-1.991Zm0 3.982a.15.15 0 1 0-.3 0v1.991a.15.15 0 1 0 .3 0v-1.991Zm0 3.981a.15.15 0 0 0-.15-.15.15.15 0 0 0-.15.15v1.991a.15.15 0 1 0 .3 0v-1.991Zm0 3.982a.15.15 0 1 0-.3 0v1.991a.15.15 0 1 0 .3 0v-1.991Zm0 3.981a.15.15 0 0 0-.15-.15.15.15 0 0 0-.15.15v1.991a.15.15 0 1 0 .3 0v-1.991Zm0 3.982a.15.15 0 1 0-.3 0v1.991a.15.15 0 1 0 .3 0v-1.991Zm0 3.982a.15.15 0 0 0-.15-.151.15.15 0 0 0-.15.151v1.99a.15.15 0 1 0 .3 0v-1.99Zm0 3.981a.15.15 0 1 0-.3 0v1.991a.15.15 0 1 0 .3 0v-1.991Zm0 3.982a.15.15 0 1 0-.3 0v1.99a.15.15 0 1 0 .3 0v-1.99Zm0 3.981a.15.15 0 1 0-.3 0v1.991a.15.15 0 1 0 .3 0v-1.991Zm0 3.982a.15.15 0 1 0-.3 0v1.99a.15.15 0 1 0 .3 0v-1.99Zm0 3.981a.15.15 0 1 0-.3 0v1.991a.15.15 0 1 0 .3 0v-1.991Zm0 3.982a.15.15 0 1 0-.3 0v1.99a.15.15 0 1 0 .3 0v-1.99Zm0 3.981a.15.15 0 1 0-.3 0v.996c0 .082.067.15.15.15a.15.15 0 0 0 .15-.15v-.996Zm7.234-182.304a.15.15 0 0 1 .15.15v.995a.15.15 0 1 1-.3 0v-.995a.15.15 0 0 1 .15-.15Zm0 2.986a.15.15 0 0 1 .15.15v1.99a.15.15 0 1 1-.3 0v-1.99a.15.15 0 0 1 .15-.15Zm0 3.982a.15.15 0 0 1 .15.15v1.99a.15.15 0 1 1-.3 0v-1.99a.15.15 0 0 1 .15-.15Zm0 3.981a.15.15 0 0 1 .15.15v1.991a.15.15 0 1 1-.3 0v-1.99a.15.15 0 0 1 .15-.15Zm0 3.982a.15.15 0 0 1 .15.15v1.99a.15.15 0 1 1-.3 0v-1.99a.15.15 0 0 1 .15-.15Zm0 3.981a.15.15 0 0 1 .15.15v1.991a.15.15 0 1 1-.3 0v-1.99a.15.15 0 0 1 .15-.15Zm0 3.982a.15.15 0 0 1 .15.15v1.99a.15.15 0 1 1-.3 0v-1.99a.15.15 0 0 1 .15-.15Zm0 3.981a.15.15 0 0 1 .15.15v1.991a.15.15 0 1 1-.3 0v-1.99a.15.15 0 0 1 .15-.15Zm0 3.982a.15.15 0 0 1 .15.15v1.99a.15.15 0 1 1-.3 0v-1.99a.15.15 0 0 1 .15-.15Zm0 3.981a.15.15 0 0 1 .15.15v1.991a.15.15 0 1 1-.3 0v-1.99a.15.15 0 0 1 .15-.15Zm0 3.982a.15.15 0 0 1 .15.15v1.991a.15.15 0 0 1-.15.15.15.15 0 0 1-.15-.15v-1.991a.15.15 0 0 1 .15-.15Zm0 3.981a.15.15 0 0 1 .15.15v1.991a.15.15 0 1 1-.3 0v-1.991a.15.15 0 0 1 .15-.15Zm0 3.982a.15.15 0 0 1 .15.15v1.991a.15.15 0 0 1-.15.15.15.15 0 0 1-.15-.15v-1.991a.15.15 0 0 1 .15-.15Zm0 3.981a.15.15 0 0 1 .15.15v1.991a.15.15 0 1 1-.3 0v-1.991a.15.15 0 0 1 .15-.15Zm0 3.982a.15.15 0 0 1 .15.15v1.459h1.517a.15.15 0 1 1 0 .3h-1.517v.232a.15.15 0 0 1-.15.15.15.15 0 0 1-.15-.15v-.232h-.191a.15.15 0 1 1 0-.3h.191v-1.459a.15.15 0 0 1 .15-.15Zm0 3.981a.15.15 0 0 1 .15.15v1.991a.15.15 0 1 1-.3 0v-1.991a.15.15 0 0 1 .15-.15Zm0 3.982a.15.15 0 0 1 .15.15v.879h1.517a.15.15 0 1 1 0 .3h-1.517v.812a.15.15 0 0 1-.15.15.15.15 0 0 1-.15-.15v-.812h-.191a.15.15 0 1 1 0-.3h.191v-.879a.15.15 0 0 1 .15-.15Zm0 3.981a.15.15 0 0 1 .15.15v1.991a.15.15 0 1 1-.3 0v-1.991a.15.15 0 0 1 .15-.15Zm0 3.982a.15.15 0 0 1 .15.15v1.991a.15.15 0 0 1-.15.15.15.15 0 0 1-.15-.15v-1.991a.15.15 0 0 1 .15-.15Zm0 3.981a.15.15 0 0 1 .15.15v1.991a.15.15 0 1 1-.3 0v-1.991a.15.15 0 0 1 .15-.15Zm0 3.982a.15.15 0 0 1 .15.15v1.991a.15.15 0 0 1-.15.15.15.15 0 0 1-.15-.15v-1.991a.15.15 0 0 1 .15-.15Zm0 3.981a.15.15 0 0 1 .15.15v1.991a.15.15 0 1 1-.3 0v-1.991a.15.15 0 0 1 .15-.15Zm0 3.982a.15.15 0 0 1 .15.15v1.991a.15.15 0 0 1-.15.15.15.15 0 0 1-.15-.15v-1.991a.15.15 0 0 1 .15-.15Zm0 3.981a.15.15 0 0 1 .15.15v1.991a.15.15 0 1 1-.3 0v-1.991a.15.15 0 0 1 .15-.15Zm0 3.982a.15.15 0 0 1 .15.15v1.991a.15.15 0 1 1-.3 0v-1.991a.15.15 0 0 1 .15-.15Zm0 3.981a.15.15 0 0 1 .15.15v1.991a.15.15 0 1 1-.3 0v-1.991a.15.15 0 0 1 .15-.15Zm0 3.982a.15.15 0 0 1 .15.15v1.991a.15.15 0 1 1-.3 0v-1.991a.15.15 0 0 1 .15-.15Zm0 3.981a.15.15 0 0 1 .15.15v1.991a.15.15 0 1 1-.3 0v-1.991a.15.15 0 0 1 .15-.15Zm0 3.982a.15.15 0 0 1 .15.15v1.991a.15.15 0 1 1-.3 0v-1.991a.15.15 0 0 1 .15-.15Zm0 3.981a.15.15 0 0 1 .15.15v1.991a.15.15 0 1 1-.3 0v-1.991a.15.15 0 0 1 .15-.15Zm0 3.982a.15.15 0 0 1 .15.15v1.991a.167.167 0 0 1-.005.039h1.522a.15.15 0 1 1 0 .3h-2.008a.15.15 0 1 1 0-.3h.196a.167.167 0 0 1-.005-.039v-1.991a.15.15 0 0 1 .15-.15Zm0 3.981a.15.15 0 0 1 .15.15v1.991a.15.15 0 1 1-.3 0v-1.991a.15.15 0 0 1 .15-.15Zm0 3.982a.15.15 0 0 1 .15.15v1.451h1.517a.15.15 0 1 1 0 .3h-1.517v.24a.15.15 0 1 1-.3 0v-.24h-.191a.15.15 0 1 1 0-.3h.191v-1.451a.15.15 0 0 1 .15-.15Zm0 3.981a.15.15 0 0 1 .15.15v1.991a.15.15 0 1 1-.3 0v-1.991a.15.15 0 0 1 .15-.15Zm0 3.982a.15.15 0 0 1 .15.15v1.991a.15.15 0 1 1-.3 0v-1.991a.15.15 0 0 1 .15-.15Zm0 3.981a.15.15 0 0 1 .15.15v1.991a.15.15 0 1 1-.3 0v-1.991a.15.15 0 0 1 .15-.15Zm0 3.982a.15.15 0 0 1 .15.15v1.991a.15.15 0 1 1-.3 0v-1.991a.15.15 0 0 1 .15-.15Zm0 3.981a.15.15 0 0 1 .15.15v1.991a.15.15 0 1 1-.3 0v-1.991a.15.15 0 0 1 .15-.15Zm0 3.982a.15.15 0 0 1 .15.15v1.991a.15.15 0 1 1-.3 0v-1.991a.15.15 0 0 1 .15-.15Zm0 3.981a.15.15 0 0 1 .15.151v1.99a.15.15 0 1 1-.3 0v-1.99a.15.15 0 0 1 .15-.151Zm0 3.982a.15.15 0 0 1 .15.15v1.991a.15.15 0 1 1-.3 0v-1.991a.15.15 0 0 1 .15-.15Zm0 3.982a.15.15 0 0 1 .15.15v1.99a.15.15 0 1 1-.3 0v-1.99a.15.15 0 0 1 .15-.15Zm0 3.981a.15.15 0 0 1 .15.15v1.991a.15.15 0 1 1-.3 0v-1.991a.15.15 0 0 1 .15-.15Zm0 3.982a.15.15 0 0 1 .15.15v1.99a.15.15 0 1 1-.3 0v-1.99a.15.15 0 0 1 .15-.15Zm0 3.981a.15.15 0 0 1 .15.15v1.991a.15.15 0 1 1-.3 0v-1.991a.15.15 0 0 1 .15-.15Zm0 3.982a.15.15 0 0 1 .15.15v1.99a.15.15 0 1 1-.3 0v-1.99a.15.15 0 0 1 .15-.15Zm0 3.981a.15.15 0 0 1 .15.15v.996a.15.15 0 0 1-.15.15.15.15 0 0 1-.15-.15v-.996a.15.15 0 0 1 .15-.15ZM175.865 59.945a.15.15 0 1 0-.3 0v.995a.15.15 0 1 0 .3 0v-.995Zm0 2.986a.15.15 0 1 0-.3 0v1.99a.15.15 0 1 0 .3 0v-1.99Zm0 3.982a.15.15 0 1 0-.3 0v1.99a.15.15 0 1 0 .3 0v-1.99Zm0 3.981a.15.15 0 1 0-.3 0v1.991a.15.15 0 1 0 .3 0v-1.99Zm0 3.982a.15.15 0 1 0-.3 0v1.99a.15.15 0 1 0 .3 0v-1.99Zm0 3.981a.15.15 0 1 0-.3 0v1.991a.15.15 0 1 0 .3 0v-1.99Zm0 3.982a.15.15 0 1 0-.3 0v1.99a.15.15 0 1 0 .3 0v-1.99Zm0 3.981a.15.15 0 1 0-.3 0v1.991a.15.15 0 1 0 .3 0v-1.99Zm0 3.982a.15.15 0 1 0-.3 0v1.99a.15.15 0 1 0 .3 0v-1.99Zm0 3.981a.15.15 0 1 0-.3 0v1.991a.15.15 0 1 0 .3 0v-1.99Zm0 3.982a.15.15 0 1 0-.3 0v1.991c0 .082.068.15.15.15a.15.15 0 0 0 .15-.15v-1.991Zm0 3.981a.15.15 0 1 0-.3 0v1.991a.15.15 0 1 0 .3 0v-1.991Zm0 3.982a.15.15 0 1 0-.3 0v1.991c0 .082.068.15.15.15a.15.15 0 0 0 .15-.15v-1.991Zm0 3.981a.15.15 0 1 0-.3 0v1.991a.15.15 0 1 0 .3 0v-1.991Zm0 3.982a.15.15 0 1 0-.3 0v1.459h-.868a.15.15 0 1 0 0 .3h.868v.232c0 .082.068.15.15.15a.15.15 0 0 0 .15-.15v-.232h.84a.15.15 0 1 0 0-.3h-.84v-1.459Zm0 3.981a.15.15 0 0 0-.15-.15.151.151 0 0 0-.15.15v1.991a.15.15 0 1 0 .3 0v-1.991Zm0 3.982a.15.15 0 1 0-.3 0v.879h-.868a.15.15 0 1 0 0 .3h.868v.812c0 .082.068.15.15.15a.15.15 0 0 0 .15-.15v-.812h.84a.15.15 0 1 0 0-.3h-.84v-.879Zm0 3.981a.15.15 0 0 0-.15-.15.151.151 0 0 0-.15.15v1.991a.15.15 0 1 0 .3 0v-1.991Zm0 3.982a.15.15 0 1 0-.3 0v1.991c0 .082.068.15.15.15a.15.15 0 0 0 .15-.15v-1.991Zm0 3.981a.15.15 0 0 0-.15-.15.151.151 0 0 0-.15.15v1.991a.15.15 0 1 0 .3 0v-1.991Zm0 3.982a.15.15 0 1 0-.3 0v1.991c0 .082.068.15.15.15a.15.15 0 0 0 .15-.15v-1.991Zm0 3.981a.15.15 0 0 0-.15-.15.151.151 0 0 0-.15.15v1.991a.15.15 0 1 0 .3 0v-1.991Zm0 3.982a.15.15 0 1 0-.3 0v1.991c0 .082.068.15.15.15a.15.15 0 0 0 .15-.15v-1.991Zm0 3.981a.15.15 0 0 0-.15-.15.151.151 0 0 0-.15.15v1.991a.15.15 0 1 0 .3 0v-1.991Zm0 3.982a.15.15 0 1 0-.3 0v1.991a.15.15 0 1 0 .3 0v-1.991Zm0 3.981a.15.15 0 0 0-.15-.15.151.151 0 0 0-.15.15v1.991a.15.15 0 1 0 .3 0v-1.991Zm0 3.982a.15.15 0 1 0-.3 0v1.991a.15.15 0 1 0 .3 0v-1.991Zm0 3.981a.15.15 0 0 0-.15-.15.151.151 0 0 0-.15.15v1.991a.15.15 0 1 0 .3 0v-1.991Zm0 3.982a.15.15 0 1 0-.3 0v1.991a.15.15 0 1 0 .3 0v-1.991Zm0 3.981a.15.15 0 0 0-.15-.15.151.151 0 0 0-.15.15v1.991a.15.15 0 1 0 .3 0v-1.991Zm0 3.982a.15.15 0 1 0-.3 0v1.991c0 .013.002.027.006.039h-.874a.15.15 0 1 0 0 .3h2.008a.15.15 0 1 0 0-.3h-.845a.127.127 0 0 0 .005-.039v-1.991Zm0 3.981a.15.15 0 0 0-.15-.15.151.151 0 0 0-.15.15v1.991a.15.15 0 1 0 .3 0v-1.991Zm0 3.982a.15.15 0 1 0-.3 0v1.451h-.868a.15.15 0 1 0 0 .3h.868v.24a.15.15 0 1 0 .3 0v-.24h.84a.15.15 0 1 0 0-.3h-.84v-1.451Zm0 3.981a.15.15 0 0 0-.15-.15.151.151 0 0 0-.15.15v1.991a.15.15 0 1 0 .3 0v-1.991Zm0 3.982a.15.15 0 1 0-.3 0v1.991a.15.15 0 1 0 .3 0v-1.991Zm0 3.981a.15.15 0 0 0-.15-.15.151.151 0 0 0-.15.15v1.991a.15.15 0 1 0 .3 0v-1.991Zm0 3.982a.15.15 0 1 0-.3 0v1.991a.15.15 0 1 0 .3 0v-1.991Zm0 3.981a.15.15 0 0 0-.15-.15.151.151 0 0 0-.15.15v1.991a.15.15 0 1 0 .3 0v-1.991Zm0 3.982a.15.15 0 1 0-.3 0v1.991a.15.15 0 1 0 .3 0v-1.991Zm0 3.982a.15.15 0 0 0-.15-.151.151.151 0 0 0-.15.151v1.99a.15.15 0 1 0 .3 0v-1.99Zm0 3.981a.15.15 0 1 0-.3 0v1.991a.15.15 0 1 0 .3 0v-1.991Zm0 3.982a.15.15 0 1 0-.3 0v1.99a.15.15 0 1 0 .3 0v-1.99Zm0 3.981a.15.15 0 1 0-.3 0v1.991a.15.15 0 1 0 .3 0v-1.991Zm0 3.982a.15.15 0 1 0-.3 0v1.99a.15.15 0 1 0 .3 0v-1.99Zm0 3.981a.15.15 0 1 0-.3 0v1.991a.15.15 0 1 0 .3 0v-1.991Zm0 3.982a.15.15 0 1 0-.3 0v1.99a.15.15 0 1 0 .3 0v-1.99Zm0 3.981a.15.15 0 1 0-.3 0v.996c0 .082.068.15.15.15a.15.15 0 0 0 .15-.15v-.996Zm120.472-61.524a.15.15 0 0 1-.15.15h-1.004a.15.15 0 1 1 0-.3h1.004a.15.15 0 0 1 .15.15Zm-3.012 0a.15.15 0 0 1-.15.15h-2.008a.15.15 0 1 1 0-.3h2.008a.15.15 0 0 1 .15.15Zm-4.016 0a.15.15 0 0 1-.15.15h-2.008a.15.15 0 1 1 0-.3h2.008a.15.15 0 0 1 .15.15Zm-4.016 0a.15.15 0 0 1-.15.15h-2.009a.15.15 0 0 1-.15-.15.15.15 0 0 1 .15-.15h2.009a.15.15 0 0 1 .15.15Zm-4.017 0a.15.15 0 0 1-.15.15h-2.008a.15.15 0 1 1 0-.3h2.008a.15.15 0 0 1 .15.15Zm-4.016 0a.15.15 0 0 1-.15.15h-2.008a.15.15 0 1 1 0-.3h2.008a.15.15 0 0 1 .15.15Zm-4.016 0a.15.15 0 0 1-.15.15h-2.008a.15.15 0 1 1 0-.3h2.008a.15.15 0 0 1 .15.15Zm-4.016 0a.15.15 0 0 1-.15.15h-2.008a.15.15 0 1 1 0-.3h2.008a.15.15 0 0 1 .15.15Zm-4.017 0a.15.15 0 0 1-.15.15h-2.008a.15.15 0 0 1-.15-.15.15.15 0 0 1 .15-.15h2.008a.15.15 0 0 1 .15.15Zm-4.016 0a.15.15 0 0 1-.15.15h-2.008a.15.15 0 1 1 0-.3h2.008a.15.15 0 0 1 .15.15Zm-4.016 0a.15.15 0 0 1-.15.15h-2.008a.15.15 0 1 1 0-.3h2.008a.15.15 0 0 1 .15.15Zm-4.016 0a.15.15 0 0 1-.15.15h-2.008a.15.15 0 1 1 0-.3h2.008a.15.15 0 0 1 .15.15Zm-4.016 0a.15.15 0 0 1-.15.15h-2.008a.15.15 0 1 1 0-.3h2.008a.15.15 0 0 1 .15.15Zm-4.017 0a.15.15 0 0 1-.15.15h-2.008a.15.15 0 1 1 0-.3h2.008a.15.15 0 0 1 .15.15Zm-8.032 0a.15.15 0 0 1-.15.15h-2.008a.15.15 0 1 1 0-.3h2.008a.15.15 0 0 1 .15.15Zm-8.032 0a.15.15 0 0 1-.15.15h-2.009a.15.15 0 0 1-.15-.15.15.15 0 0 1 .15-.15h2.009a.15.15 0 0 1 .15.15Zm-4.017 0a.15.15 0 0 1-.15.15h-2.008a.15.15 0 1 1 0-.3h2.008a.15.15 0 0 1 .15.15Zm-4.016 0a.15.15 0 0 1-.15.15h-2.008a.15.15 0 1 1 0-.3h2.008a.15.15 0 0 1 .15.15Zm-4.016 0a.15.15 0 0 1-.15.15h-2.008a.15.15 0 1 1 0-.3h2.008a.15.15 0 0 1 .15.15Zm-4.016 0a.15.15 0 0 1-.15.15h-2.008a.15.15 0 1 1 0-.3h2.008a.15.15 0 0 1 .15.15Zm-4.016 0a.15.15 0 0 1-.15.15h-2.009a.15.15 0 0 1-.15-.15.15.15 0 0 1 .15-.15h2.009a.15.15 0 0 1 .15.15Zm-4.017 0a.15.15 0 0 1-.15.15h-2.008a.15.15 0 1 1 0-.3h2.008a.15.15 0 0 1 .15.15Zm-4.016 0a.15.15 0 0 1-.15.15h-2.008a.15.15 0 1 1 0-.3h2.008a.15.15 0 0 1 .15.15Zm-4.016 0a.15.15 0 0 1-.15.15h-2.008a.15.15 0 1 1 0-.3h2.008a.15.15 0 0 1 .15.15Zm-4.016 0a.15.15 0 0 1-.15.15h-2.008a.15.15 0 1 1 0-.3h2.008a.15.15 0 0 1 .15.15Zm-4.016 0a.15.15 0 0 1-.15.15h-2.009a.15.15 0 0 1-.15-.15.15.15 0 0 1 .15-.15h2.009a.15.15 0 0 1 .15.15Zm-4.017 0a.15.15 0 0 1-.15.15h-2.008a.15.15 0 1 1 0-.3h2.008a.15.15 0 0 1 .15.15Zm-4.016 0a.15.15 0 0 1-.15.15h-2.008a.15.15 0 1 1 0-.3h2.008a.15.15 0 0 1 .15.15Zm-8.032 0a.15.15 0 0 1-.15.15h-2.008a.15.15 0 1 1 0-.3h2.008a.15.15 0 0 1 .15.15Zm-8.033 0a.15.15 0 0 1-.15.15h-2.008a.15.15 0 1 1 0-.3h2.008a.15.15 0 0 1 .15.15Zm-4.016 0a.15.15 0 0 1-.15.15h-2.008a.15.15 0 1 1 0-.3h2.008a.15.15 0 0 1 .15.15Zm-4.016 0a.15.15 0 0 1-.15.15h-2.008a.15.15 0 1 1 0-.3h2.008a.15.15 0 0 1 .15.15Zm-4.016 0a.15.15 0 0 1-.15.15H150.6a.15.15 0 1 1 0-.3h2.008a.15.15 0 0 1 .15.15Zm-4.017 0a.15.15 0 0 1-.15.15h-2.008a.15.15 0 0 1-.15-.15.15.15 0 0 1 .15-.15h2.008a.15.15 0 0 1 .15.15Zm-4.016 0a.15.15 0 0 1-.15.15h-2.008a.15.15 0 1 1 0-.3h2.008a.15.15 0 0 1 .15.15Zm-4.016 0a.15.15 0 0 1-.15.15h-2.008a.15.15 0 1 1 0-.3h2.008a.15.15 0 0 1 .15.15Zm-4.016 0a.15.15 0 0 1-.15.15h-2.008a.15.15 0 1 1 0-.3h2.008a.15.15 0 0 1 .15.15Zm-4.016 0a.15.15 0 0 1-.15.15h-2.008a.15.15 0 1 1 0-.3h2.008a.15.15 0 0 1 .15.15Zm-4.017 0a.15.15 0 0 1-.15.15h-2.008a.15.15 0 1 1 0-.3h2.008a.15.15 0 0 1 .15.15Zm-4.016 0a.15.15 0 0 1-.15.15h-2.008a.15.15 0 1 1 0-.3h2.008a.15.15 0 0 1 .15.15Zm-4.016 0a.15.15 0 0 1-.15.15h-2.008a.15.15 0 1 1 0-.3h2.008a.15.15 0 0 1 .15.15Zm-4.016 0a.15.15 0 0 1-.15.15h-2.008a.15.15 0 1 1 0-.3h2.008a.15.15 0 0 1 .15.15Zm-4.016 0a.15.15 0 0 1-.15.15h-1.005a.15.15 0 0 1-.15-.15.15.15 0 0 1 .15-.15h1.005a.15.15 0 0 1 .15.15Zm183.591-64.125a.15.15 0 1 0 0-.3h-1.004a.15.15 0 1 0 0 .3h1.004Zm-3.012 0a.15.15 0 1 0 0-.3h-2.008a.15.15 0 1 0 0 .3h2.008Zm-4.016 0a.15.15 0 1 0 0-.3h-2.008a.15.15 0 1 0 0 .3h2.008Zm-4.016 0c.082 0 .15-.068.15-.15a.15.15 0 0 0-.15-.15h-2.009a.15.15 0 0 0-.15.15c0 .082.068.15.15.15h2.009Zm-4.017 0a.15.15 0 1 0 0-.3h-2.008a.15.15 0 1 0 0 .3h2.008Zm-4.016 0a.15.15 0 1 0 0-.3h-2.008a.15.15 0 1 0 0 .3h2.008Zm-4.016 0a.15.15 0 1 0 0-.3h-2.008a.15.15 0 1 0 0 .3h2.008Zm-4.016 0a.15.15 0 1 0 0-.3h-2.008a.15.15 0 1 0 0 .3h2.008Zm-4.016 0c.082 0 .15-.068.15-.15a.15.15 0 0 0-.15-.15h-2.009a.15.15 0 0 0-.15.15c0 .082.068.15.15.15h2.009Zm-4.017 0a.15.15 0 1 0 0-.3h-2.008a.15.15 0 1 0 0 .3h2.008Zm-4.016 0a.15.15 0 1 0 0-.3h-2.008a.15.15 0 1 0 0 .3h2.008Zm-4.016 0a.15.15 0 1 0 0-.3h-2.008a.15.15 0 1 0 0 .3h2.008Zm-4.016 0c.082 0 .15-.068.15-.15a.15.15 0 0 0-.15-.15h-2.008a.15.15 0 1 0 0 .3h2.008Zm-4.017 0a.15.15 0 1 0 0-.3h-2.008a.15.15 0 1 0 0 .3h2.008Zm-8.032 0a.15.15 0 1 0 0-.3h-2.008a.15.15 0 1 0 0 .3h2.008Zm-8.032 0c.082 0 .15-.068.15-.15a.15.15 0 0 0-.15-.15h-2.009a.15.15 0 0 0-.15.15c0 .082.068.15.15.15h2.009Zm-4.017 0a.15.15 0 1 0 0-.3h-2.008a.15.15 0 1 0 0 .3h2.008Zm-4.016 0a.15.15 0 1 0 0-.3h-2.008a.15.15 0 1 0 0 .3h2.008Zm-4.016 0a.15.15 0 1 0 0-.3h-2.008a.15.15 0 1 0 0 .3h2.008Zm-4.016 0a.15.15 0 1 0 0-.3h-2.008a.15.15 0 1 0 0 .3h2.008Zm-4.016 0c.082 0 .15-.068.15-.15a.15.15 0 0 0-.15-.15h-2.009a.15.15 0 0 0-.15.15c0 .082.068.15.15.15h2.009Zm-4.017 0a.15.15 0 1 0 0-.3h-2.008a.15.15 0 1 0 0 .3h2.008Zm-4.016 0a.15.15 0 1 0 0-.3h-2.008a.15.15 0 1 0 0 .3h2.008Zm-4.016 0a.15.15 0 1 0 0-.3h-2.008a.15.15 0 1 0 0 .3h2.008Zm-4.016 0a.15.15 0 1 0 0-.3h-2.008a.15.15 0 1 0 0 .3h2.008Zm-4.016 0c.082 0 .15-.068.15-.15a.15.15 0 0 0-.15-.15h-2.009a.15.15 0 0 0-.15.15c0 .082.068.15.15.15h2.009Zm-4.017 0a.15.15 0 1 0 0-.3h-2.008a.15.15 0 1 0 0 .3h2.008Zm-4.016 0a.15.15 0 1 0 0-.3h-2.008a.15.15 0 1 0 0 .3h2.008Zm-8.032 0a.15.15 0 1 0 0-.3h-2.008a.15.15 0 1 0 0 .3h2.008Zm-8.033 0a.15.15 0 1 0 0-.3h-2.008a.15.15 0 1 0 0 .3h2.008Zm-4.016 0a.15.15 0 1 0 0-.3h-2.008a.15.15 0 1 0 0 .3h2.008Zm-4.016 0a.15.15 0 1 0 0-.3h-2.008a.15.15 0 1 0 0 .3h2.008Zm-4.016 0a.15.15 0 1 0 0-.3H150.6a.15.15 0 1 0 0 .3h2.008Zm-4.017 0a.15.15 0 1 0 0-.3h-2.008a.15.15 0 0 0-.15.15c0 .082.068.15.15.15h2.008Zm-4.016 0a.15.15 0 1 0 0-.3h-2.008a.15.15 0 1 0 0 .3h2.008Zm-4.016 0a.15.15 0 1 0 0-.3h-2.008a.15.15 0 1 0 0 .3h2.008Zm-4.016 0a.15.15 0 1 0 0-.3h-2.008a.15.15 0 1 0 0 .3h2.008Zm-4.016 0a.15.15 0 1 0 0-.3h-2.008a.15.15 0 1 0 0 .3h2.008Zm-4.017 0a.15.15 0 1 0 0-.3h-2.008a.15.15 0 0 0-.15.15c0 .082.068.15.15.15h2.008Zm-4.016 0a.15.15 0 1 0 0-.3h-2.008a.15.15 0 1 0 0 .3h2.008Zm-4.016 0a.15.15 0 1 0 0-.3h-2.008a.15.15 0 1 0 0 .3h2.008Zm-4.016 0a.15.15 0 1 0 0-.3h-2.008a.15.15 0 1 0 0 .3h2.008Zm-4.016 0c.082 0 .15-.068.15-.15a.15.15 0 0 0-.15-.15h-1.005a.15.15 0 0 0-.15.15c0 .082.068.15.15.15h1.005Zm183.891 71.509a.15.15 0 0 1-.15.15h-1.004a.15.15 0 1 1 0-.3h1.004a.15.15 0 0 1 .15.15Zm-3.012 0a.15.15 0 0 1-.15.15h-2.008a.15.15 0 1 1 0-.3h2.008a.15.15 0 0 1 .15.15Zm-4.016 0a.15.15 0 0 1-.15.15h-2.008a.15.15 0 1 1 0-.3h2.008a.15.15 0 0 1 .15.15Zm-4.016 0a.15.15 0 0 1-.15.15h-2.009a.15.15 0 0 1-.15-.15.15.15 0 0 1 .15-.15h2.009a.15.15 0 0 1 .15.15Zm-4.017 0a.15.15 0 0 1-.15.15h-2.008a.15.15 0 1 1 0-.3h2.008a.15.15 0 0 1 .15.15Zm-4.016 0a.15.15 0 0 1-.15.15h-2.008a.15.15 0 1 1 0-.3h2.008a.15.15 0 0 1 .15.15Zm-4.016 0a.15.15 0 0 1-.15.15h-2.008a.15.15 0 1 1 0-.3h2.008a.15.15 0 0 1 .15.15Zm-4.016 0a.15.15 0 0 1-.15.15h-2.008a.15.15 0 1 1 0-.3h2.008a.15.15 0 0 1 .15.15Zm-4.017 0a.15.15 0 0 1-.15.15h-2.008a.15.15 0 0 1-.15-.15.15.15 0 0 1 .15-.15h2.008a.15.15 0 0 1 .15.15Zm-4.016 0a.15.15 0 0 1-.15.15h-2.008a.15.15 0 1 1 0-.3h2.008a.15.15 0 0 1 .15.15Zm-4.016 0a.15.15 0 0 1-.15.15h-2.008a.15.15 0 1 1 0-.3h2.008a.15.15 0 0 1 .15.15Zm-4.016 0a.15.15 0 0 1-.15.15h-2.008a.15.15 0 1 1 0-.3h2.008a.15.15 0 0 1 .15.15Zm-4.016 0a.15.15 0 0 1-.15.15h-2.008a.15.15 0 1 1 0-.3h2.008a.15.15 0 0 1 .15.15Zm-4.017 0a.15.15 0 0 1-.15.15h-2.008a.15.15 0 1 1 0-.3h2.008a.15.15 0 0 1 .15.15Zm-8.032 0a.15.15 0 0 1-.15.15h-2.008a.15.15 0 1 1 0-.3h2.008a.15.15 0 0 1 .15.15Zm-8.032 0a.15.15 0 0 1-.15.15h-2.009a.15.15 0 0 1-.15-.15.15.15 0 0 1 .15-.15h2.009a.15.15 0 0 1 .15.15Zm-4.017 0a.15.15 0 0 1-.15.15h-2.008a.15.15 0 1 1 0-.3h2.008a.15.15 0 0 1 .15.15Zm-4.016 0a.15.15 0 0 1-.15.15h-2.008a.15.15 0 1 1 0-.3h2.008a.15.15 0 0 1 .15.15Zm-4.016 0a.15.15 0 0 1-.15.15h-2.008a.15.15 0 1 1 0-.3h2.008a.15.15 0 0 1 .15.15Zm-4.016 0a.15.15 0 0 1-.15.15h-2.008a.15.15 0 1 1 0-.3h2.008a.15.15 0 0 1 .15.15Zm-4.016 0a.15.15 0 0 1-.15.15h-2.009a.15.15 0 0 1-.15-.15.15.15 0 0 1 .15-.15h2.009a.15.15 0 0 1 .15.15Zm-4.017 0a.15.15 0 0 1-.15.15h-2.008a.15.15 0 1 1 0-.3h2.008a.15.15 0 0 1 .15.15Zm-4.016 0a.15.15 0 0 1-.15.15h-2.008a.15.15 0 1 1 0-.3h2.008a.15.15 0 0 1 .15.15Zm-4.016 0a.15.15 0 0 1-.15.15h-2.008a.15.15 0 1 1 0-.3h2.008a.15.15 0 0 1 .15.15Zm-4.016 0a.15.15 0 0 1-.15.15h-2.008a.15.15 0 1 1 0-.3h2.008a.15.15 0 0 1 .15.15Zm-4.016 0a.15.15 0 0 1-.15.15h-2.009a.15.15 0 0 1-.15-.15.15.15 0 0 1 .15-.15h2.009a.15.15 0 0 1 .15.15Zm-4.017 0a.15.15 0 0 1-.15.15h-2.008a.15.15 0 1 1 0-.3h2.008a.15.15 0 0 1 .15.15Zm-4.016 0a.15.15 0 0 1-.15.15h-2.008a.15.15 0 1 1 0-.3h2.008a.15.15 0 0 1 .15.15Zm-8.032 0a.15.15 0 0 1-.15.15h-2.008a.15.15 0 1 1 0-.3h2.008a.15.15 0 0 1 .15.15Zm-8.033 0a.15.15 0 0 1-.15.15h-2.008a.15.15 0 1 1 0-.3h2.008a.15.15 0 0 1 .15.15Zm-4.016 0a.15.15 0 0 1-.15.15h-2.008a.15.15 0 1 1 0-.3h2.008a.15.15 0 0 1 .15.15Zm-4.016 0a.15.15 0 0 1-.15.15h-2.008a.15.15 0 1 1 0-.3h2.008a.15.15 0 0 1 .15.15Zm-4.016 0a.15.15 0 0 1-.15.15H150.6a.15.15 0 1 1 0-.3h2.008a.15.15 0 0 1 .15.15Zm-4.017 0a.15.15 0 0 1-.15.15h-2.008a.15.15 0 0 1-.15-.15.15.15 0 0 1 .15-.15h2.008a.15.15 0 0 1 .15.15Zm-4.016 0a.15.15 0 0 1-.15.15h-2.008a.15.15 0 1 1 0-.3h2.008a.15.15 0 0 1 .15.15Zm-4.016 0a.15.15 0 0 1-.15.15h-2.008a.15.15 0 1 1 0-.3h2.008a.15.15 0 0 1 .15.15Zm-4.016 0a.15.15 0 0 1-.15.15h-2.008a.15.15 0 1 1 0-.3h2.008a.15.15 0 0 1 .15.15Zm-4.016 0a.15.15 0 0 1-.15.15h-2.008a.15.15 0 1 1 0-.3h2.008a.15.15 0 0 1 .15.15Zm-4.017 0a.15.15 0 0 1-.15.15h-2.008a.15.15 0 1 1 0-.3h2.008a.15.15 0 0 1 .15.15Zm-4.016 0a.15.15 0 0 1-.15.15h-2.008a.15.15 0 1 1 0-.3h2.008a.15.15 0 0 1 .15.15Zm-4.016 0a.15.15 0 0 1-.15.15h-2.008a.15.15 0 1 1 0-.3h2.008a.15.15 0 0 1 .15.15Zm-4.016 0a.15.15 0 0 1-.15.15h-2.008a.15.15 0 1 1 0-.3h2.008a.15.15 0 0 1 .15.15Zm-4.016 0a.15.15 0 0 1-.15.15h-1.005a.15.15 0 0 1-.15-.15.15.15 0 0 1 .15-.15h1.005a.15.15 0 0 1 .15.15Zm183.591-64.126a.15.15 0 1 0 0-.3h-1.004a.15.15 0 1 0 0 .3h1.004Zm-3.012 0a.15.15 0 1 0 0-.3h-2.008a.15.15 0 1 0 0 .3h2.008Zm-4.016 0a.15.15 0 1 0 0-.3h-2.008a.15.15 0 1 0 0 .3h2.008Zm-4.016 0a.15.15 0 0 0 .15-.15.15.15 0 0 0-.15-.15h-2.009a.15.15 0 0 0-.15.15c0 .083.068.15.15.15h2.009Zm-4.017 0a.15.15 0 1 0 0-.3h-2.008a.15.15 0 1 0 0 .3h2.008Zm-4.016 0a.15.15 0 1 0 0-.3h-2.008a.15.15 0 1 0 0 .3h2.008Zm-4.016 0a.15.15 0 1 0 0-.3h-2.008a.15.15 0 1 0 0 .3h2.008Zm-4.016 0a.15.15 0 1 0 0-.3h-2.008a.15.15 0 1 0 0 .3h2.008Zm-4.016 0a.15.15 0 0 0 .15-.15.15.15 0 0 0-.15-.15h-2.009a.15.15 0 0 0-.15.15c0 .083.068.15.15.15h2.009Zm-4.017 0a.15.15 0 1 0 0-.3h-2.008a.15.15 0 1 0 0 .3h2.008Zm-4.016 0a.15.15 0 1 0 0-.3h-2.008a.15.15 0 1 0 0 .3h2.008Zm-4.016 0a.15.15 0 1 0 0-.3h-2.008a.15.15 0 1 0 0 .3h2.008Zm-4.016 0a.15.15 0 0 0 .15-.15.15.15 0 0 0-.15-.15h-2.008a.15.15 0 1 0 0 .3h2.008Zm-4.017 0a.15.15 0 1 0 0-.3h-2.008a.15.15 0 1 0 0 .3h2.008Zm-8.032 0a.15.15 0 1 0 0-.3h-2.008a.15.15 0 1 0 0 .3h2.008Zm-8.032 0a.15.15 0 0 0 .15-.15.15.15 0 0 0-.15-.15h-2.009a.15.15 0 0 0-.15.15c0 .083.068.15.15.15h2.009Zm-4.017 0a.15.15 0 1 0 0-.3h-2.008a.15.15 0 1 0 0 .3h2.008Zm-4.016 0a.15.15 0 1 0 0-.3h-2.008a.15.15 0 1 0 0 .3h2.008Zm-4.016 0a.15.15 0 1 0 0-.3h-2.008a.15.15 0 1 0 0 .3h2.008Zm-4.016 0a.15.15 0 1 0 0-.3h-2.008a.15.15 0 1 0 0 .3h2.008Zm-4.016 0a.15.15 0 0 0 .15-.15.15.15 0 0 0-.15-.15h-2.009a.15.15 0 0 0-.15.15c0 .083.068.15.15.15h2.009Zm-4.017 0a.15.15 0 1 0 0-.3h-2.008a.15.15 0 1 0 0 .3h2.008Zm-4.016 0a.15.15 0 1 0 0-.3h-2.008a.15.15 0 1 0 0 .3h2.008Zm-4.016 0a.15.15 0 1 0 0-.3h-2.008a.15.15 0 1 0 0 .3h2.008Zm-4.016 0a.15.15 0 1 0 0-.3h-2.008a.15.15 0 1 0 0 .3h2.008Zm-4.016 0a.15.15 0 0 0 .15-.15.15.15 0 0 0-.15-.15h-2.009a.15.15 0 0 0-.15.15c0 .083.068.15.15.15h2.009Zm-4.017 0a.15.15 0 1 0 0-.3h-2.008a.15.15 0 1 0 0 .3h2.008Zm-4.016 0a.15.15 0 1 0 0-.3h-2.008a.15.15 0 1 0 0 .3h2.008Zm-8.032 0a.15.15 0 1 0 0-.3h-2.008a.15.15 0 1 0 0 .3h2.008Zm-8.033 0a.15.15 0 1 0 0-.3h-2.008a.15.15 0 1 0 0 .3h2.008Zm-4.016 0a.15.15 0 1 0 0-.3h-2.008a.15.15 0 1 0 0 .3h2.008Zm-4.016 0a.15.15 0 1 0 0-.3h-2.008a.15.15 0 1 0 0 .3h2.008Zm-4.016 0a.15.15 0 1 0 0-.3H150.6a.15.15 0 1 0 0 .3h2.008Zm-4.017 0a.15.15 0 1 0 0-.3h-2.008a.15.15 0 0 0-.15.15c0 .083.068.15.15.15h2.008Zm-4.016 0a.15.15 0 1 0 0-.3h-2.008a.15.15 0 1 0 0 .3h2.008Zm-4.016 0a.15.15 0 1 0 0-.3h-2.008a.15.15 0 1 0 0 .3h2.008Zm-4.016 0a.15.15 0 1 0 0-.3h-2.008a.15.15 0 1 0 0 .3h2.008Zm-4.016 0a.15.15 0 1 0 0-.3h-2.008a.15.15 0 1 0 0 .3h2.008Zm-4.017 0a.15.15 0 1 0 0-.3h-2.008a.15.15 0 0 0-.15.15c0 .083.068.15.15.15h2.008Zm-4.016 0a.15.15 0 1 0 0-.3h-2.008a.15.15 0 1 0 0 .3h2.008Zm-4.016 0a.15.15 0 1 0 0-.3h-2.008a.15.15 0 1 0 0 .3h2.008Zm-4.016 0a.15.15 0 1 0 0-.3h-2.008a.15.15 0 1 0 0 .3h2.008Zm-4.016 0a.15.15 0 0 0 .15-.15.15.15 0 0 0-.15-.15h-1.005a.15.15 0 0 0-.15.15c0 .083.068.15.15.15h1.005Z"
    clip-rule="evenodd"
  />
  <g class="logo" filter="url(#base-e)" shape-rendering="crispEdges">
    <path
      fill="#000"
      fill-opacity=".05"
      d="M186.715 168.718a3.358 3.358 0 0 1 0-4.787l23.01-22.76h-8.776c-1.89 0-3.422-1.515-3.422-3.385 0-1.869 1.532-3.384 3.422-3.384h16.911c.086-.003.171-.003.256 0h.423c1.89 0 3.422 1.515 3.422 3.384v17.399c0 1.87-1.532 3.385-3.422 3.385-1.889 0-3.421-1.515-3.421-3.385v-9.775l-23.564 23.308a3.448 3.448 0 0 1-4.839 0Z"
    />
    <path
      fill="#000"
      fill-opacity=".05"
      fill-rule="evenodd"
      d="M144.772 93.074a18.044 18.044 0 0 1 12.687-5.198c4.759 0 9.322 1.87 12.687 5.198a17.648 17.648 0 0 1 5.255 12.549v10.978h56.738v-10.978c0-4.707 1.89-9.22 5.255-12.549a18.042 18.042 0 0 1 12.687-5.198c4.758 0 9.322 1.87 12.687 5.198a17.648 17.648 0 0 1 5.255 12.549c0 4.707-1.89 9.221-5.255 12.549a18.045 18.045 0 0 1-12.687 5.198h-11.098v57.518h11.098c4.758 0 9.322 1.87 12.687 5.198a17.648 17.648 0 0 1 5.255 12.549c0 4.707-1.89 9.221-5.255 12.549a18.045 18.045 0 0 1-12.687 5.198c-4.759 0-9.322-1.87-12.687-5.198a17.648 17.648 0 0 1-5.255-12.549v-10.978h-56.738v10.978c0 4.707-1.89 9.221-5.255 12.549a18.043 18.043 0 0 1-12.687 5.198c-4.758 0-9.322-1.87-12.687-5.198a17.652 17.652 0 0 1-5.255-12.549c0-4.707 1.891-9.221 5.255-12.549a18.045 18.045 0 0 1 12.687-5.198h11.098V123.37h-11.098c-4.758 0-9.322-1.87-12.687-5.198a17.652 17.652 0 0 1-5.255-12.549c0-4.707 1.891-9.22 5.255-12.549Zm23.785 23.527v-10.978a10.92 10.92 0 0 0-3.25-7.762 11.161 11.161 0 0 0-7.848-3.216 11.163 11.163 0 0 0-7.848 3.216 10.92 10.92 0 0 0-3.25 7.762c0 2.911 1.169 5.704 3.25 7.762a11.163 11.163 0 0 0 7.848 3.216h11.098Zm6.844 6.769v57.518h56.738V123.37h-56.738Zm-6.844 64.287h-11.098a11.166 11.166 0 0 0-7.848 3.215 10.92 10.92 0 0 0-3.25 7.763c0 2.911 1.169 5.703 3.25 7.762a11.162 11.162 0 0 0 7.848 3.215 11.16 11.16 0 0 0 7.848-3.215 10.919 10.919 0 0 0 3.25-7.762v-10.978Zm70.426 0v10.978c0 2.911 1.169 5.703 3.25 7.762a11.16 11.16 0 0 0 7.848 3.215c2.943 0 5.766-1.156 7.848-3.215a10.919 10.919 0 0 0 3.25-7.762 10.92 10.92 0 0 0-3.25-7.763 11.166 11.166 0 0 0-7.848-3.215h-11.098Zm0-71.056h11.098c2.943 0 5.766-1.157 7.848-3.216a10.917 10.917 0 0 0 3.25-7.762 10.92 10.92 0 0 0-3.25-7.762 11.163 11.163 0 0 0-7.848-3.216 11.161 11.161 0 0 0-7.848 3.216 10.92 10.92 0 0 0-3.25 7.762v10.978Z"
      clip-rule="evenodd"
    />
    <path
      stroke="url(#base-f)"
      stroke-linecap="round"
      stroke-linejoin="round"
      stroke-width=".5"
      d="M157.459 87.626a18.293 18.293 0 0 0-12.863 5.27 17.903 17.903 0 0 0-5.329 12.727c0 4.774 1.918 9.352 5.329 12.727a18.296 18.296 0 0 0 12.863 5.27h10.848v57.018h-10.848a18.292 18.292 0 0 0-12.863 5.27 17.904 17.904 0 0 0-5.329 12.727c0 4.774 1.918 9.352 5.329 12.727a18.296 18.296 0 0 0 12.863 5.27c4.824 0 9.451-1.896 12.863-5.27a17.9 17.9 0 0 0 5.329-12.727v-10.728h56.238v10.728a17.9 17.9 0 0 0 5.329 12.727 18.296 18.296 0 0 0 12.863 5.27c4.824 0 9.451-1.896 12.863-5.27a17.9 17.9 0 0 0 5.329-12.727 17.9 17.9 0 0 0-5.329-12.727 18.292 18.292 0 0 0-12.863-5.27h-10.848V123.62h10.848c4.824 0 9.451-1.896 12.863-5.27a17.9 17.9 0 0 0 5.329-12.727 17.9 17.9 0 0 0-5.329-12.727 18.293 18.293 0 0 0-12.863-5.27 18.293 18.293 0 0 0-12.863 5.27 17.9 17.9 0 0 0-5.329 12.727v10.728h-56.238v-10.728a17.9 17.9 0 0 0-5.329-12.727 18.293 18.293 0 0 0-12.863-5.27Zm10.848 17.997v10.728h-10.848a10.913 10.913 0 0 1-7.672-3.143 10.669 10.669 0 0 1-3.176-7.585c0-2.844 1.142-5.573 3.176-7.585a10.912 10.912 0 0 1 7.672-3.143 10.91 10.91 0 0 1 7.672 3.143 10.667 10.667 0 0 1 3.176 7.585Zm7.344 75.015V123.62h56.238v57.018h-56.238Zm-18.192 7.269h10.848v10.728c0 2.844-1.142 5.572-3.176 7.584a10.907 10.907 0 0 1-7.672 3.143c-2.878 0-5.637-1.13-7.672-3.143a10.667 10.667 0 0 1-3.176-7.584c0-2.844 1.142-5.573 3.176-7.585a10.913 10.913 0 0 1 7.672-3.143Zm81.774 10.728v-10.728h10.848a10.91 10.91 0 0 1 7.672 3.143 10.669 10.669 0 0 1 3.176 7.585c0 2.844-1.142 5.572-3.176 7.584a10.907 10.907 0 0 1-7.672 3.143c-2.878 0-5.638-1.13-7.672-3.143a10.667 10.667 0 0 1-3.176-7.584Zm10.848-82.284h-10.848v-10.728c0-2.844 1.142-5.573 3.176-7.585a10.91 10.91 0 0 1 7.672-3.143 10.91 10.91 0 0 1 7.672 3.143 10.667 10.667 0 0 1 3.176 7.585c0 2.844-1.142 5.573-3.176 7.585a10.91 10.91 0 0 1-7.672 3.143Zm-63.542 47.403a3.607 3.607 0 0 0 0 5.142 3.699 3.699 0 0 0 5.191 0l23.138-22.887v9.176c0 2.01 1.646 3.635 3.671 3.635 2.026 0 3.672-1.625 3.672-3.635v-17.399c0-2.01-1.646-3.634-3.672-3.634h-.418a3.903 3.903 0 0 0-.265 0h-16.907c-2.025 0-3.672 1.624-3.672 3.634s1.647 3.635 3.672 3.635h8.168l-22.578 22.333Z"
    />
  </g>
  <defs>
    <linearGradient
      id="base-a"
      x1="203.589"
      x2="203.589"
      y1="-12.15"
      y2="272.735"
      gradientUnits="userSpaceOnUse"
    >
      <stop offset=".659" stop-color="#fff" />
      <stop offset="1" stop-color="#fff" stop-opacity="0" />
    </linearGradient>
    <linearGradient
      id="base-c"
      x1="137.97"
      x2="203.77"
      y1="66.478"
      y2="212.712"
      gradientUnits="userSpaceOnUse"
    >
      <stop stop-color="#fff" />
      <stop offset="1" stop-color="#fff" stop-opacity="0" />
    </linearGradient>
    <linearGradient
      id="base-d"
      x1="203.814"
      x2="203.814"
      y1="59.545"
      y2="243.495"
      gradientUnits="userSpaceOnUse"
    >
      <stop stop-color="#fff" />
      <stop offset="1" stop-color="#fff" stop-opacity="0" />
    </linearGradient>
    <linearGradient
      id="base-f"
      x1="144.041"
      x2="203.77"
      y1="91.316"
      y2="216.382"
      gradientUnits="userSpaceOnUse"
    >
      <stop stop-color="#fff" />
      <stop offset="1" stop-color="#fff" stop-opacity="0" />
    </linearGradient>
    <filter
      id="base-b"
      width="185.368"
      height="189.368"
      x="111.086"
      y="59.445"
      color-interpolation-filters="sRGB"
      filterUnits="userSpaceOnUse"
    >
      <feFlood flood-opacity="0" result="BackgroundImageFix" />
      <feBlend in="SourceGraphic" in2="BackgroundImageFix" result="shape" />
      <feColorMatrix
        in="SourceAlpha"
        result="hardAlpha"
        values="0 0 0 0 0 0 0 0 0 0 0 0 0 0 0 0 0 0 127 0"
      />
      <feOffset dy="4" />
      <feGaussianBlur stdDeviation="2" />
      <feComposite in2="hardAlpha" k2="-1" k3="1" operator="arithmetic" />
      <feColorMatrix
        values="0 0 0 0 0.376156 0 0 0 0 0.376156 0 0 0 0 0.376156 0 0 0 0.45 0"
      />
      <feBlend in2="shape" result="effect1_innerShadow_201_2809" />
    </filter>
    <filter
      id="base-e"
      width="139.506"
      height="139.506"
      x="134.017"
      y="84.376"
      color-interpolation-filters="sRGB"
      filterUnits="userSpaceOnUse"
    >
      <feFlood flood-opacity="0" result="BackgroundImageFix" />
      <feColorMatrix
        in="SourceAlpha"
        result="hardAlpha"
        values="0 0 0 0 0 0 0 0 0 0 0 0 0 0 0 0 0 0 127 0"
      />
      <feOffset dy="2" />
      <feGaussianBlur stdDeviation="2.5" />
      <feComposite in2="hardAlpha" operator="out" />
      <feColorMatrix values="0 0 0 0 0 0 0 0 0 0 0 0 0 0 0 0 0 0 0.25 0" />
      <feBlend in2="BackgroundImageFix" result="effect1_dropShadow_201_2809" />
      <feBlend
        in="SourceGraphic"
        in2="effect1_dropShadow_201_2809"
        result="shape"
      />
    </filter>
  </defs>
</svg>
