<svg
  width="401"
  height="302"
  viewBox="0 0 401 302"
  fill="none"
  xmlns="http://www.w3.org/2000/svg"
>
  <g filter="url(#filter0_i_247_1873)">
    <path
      d="M164.643 214.908L169.684 218.014C182.539 225.939 188.966 229.901 196.019 230.721C198.335 230.99 200.673 231.005 202.993 230.766C210.056 230.039 216.534 226.161 229.492 218.405L235.553 214.777C257.277 201.774 270.575 178.316 270.575 152.998V85.0465L239.973 79.2934C213.212 74.2624 185.741 74.3368 159.007 79.5127L130.425 85.0465V153.617C130.425 178.6 143.376 201.798 164.643 214.908Z"
      fill="#171717"
    />
  </g>
  <path
    d="M130.378 84.801C130.26 84.8238 130.175 84.9267 130.175 85.0465V153.617C130.175 178.687 143.171 201.965 164.512 215.12L169.552 218.227L169.623 218.271C182.411 226.154 188.882 230.143 195.99 230.969C198.324 231.24 200.681 231.256 203.018 231.015C210.137 230.282 216.66 226.377 229.549 218.662L229.62 218.619L235.681 214.991C257.481 201.943 270.825 178.404 270.825 152.998V85.0465C270.825 84.9262 270.739 84.823 270.621 84.8008L240.019 79.0477C213.227 74.0109 185.724 74.0854 158.96 79.2673L130.378 84.801Z"
    stroke="url(#paint0_linear_247_1873)"
    stroke-width="2px"
    stroke-linecap="round"
    stroke-linejoin="round"
  />
  <defs>
    <filter
      id="filter0_i_247_1873"
      x="129.925"
      y="75.0747"
      width="141.149"
      height="160.36"
      filterUnits="userSpaceOnUse"
      color-interpolation-filters="sRGB"
    >
      <feFlood flood-opacity="0" result="BackgroundImageFix" />
      <feBlend
        mode="normal"
        in="SourceGraphic"
        in2="BackgroundImageFix"
        result="shape"
      />
      <feColorMatrix
        in="SourceAlpha"
        type="matrix"
        values="0 0 0 0 0 0 0 0 0 0 0 0 0 0 0 0 0 0 127 0"
        result="hardAlpha"
      />
      <feOffset dy="4" />
      <feGaussianBlur stdDeviation="2" />
      <feComposite in2="hardAlpha" operator="arithmetic" k2="-1" k3="1" />
      <feColorMatrix
        type="matrix"
        values="0 0 0 0 0.376156 0 0 0 0 0.376156 0 0 0 0 0.376156 0 0 0 0.45 0"
      />
      <feBlend
        mode="normal"
        in2="shape"
        result="effect1_innerShadow_247_1873"
      />
    </filter>
    <linearGradient
      id="paint0_linear_247_1873"
      x1="150.481"
      y1="81.2724"
      x2="212.996"
      y2="202.362"
      gradientUnits="userSpaceOnUse"
    >
      <stop stop-color="white" />
      <stop offset="1" stop-color="white" stop-opacity="0" />
    </linearGradient>
  </defs>
</svg>
