<svg
  width="401"
  height="302"
  viewBox="0 0 401 302"
  fill="none"
  xmlns="http://www.w3.org/2000/svg"
>
  <path
    d="M159.381 217.895L199.392 242.559L240.815 217.765C262.539 204.762 275.837 181.304 275.837 155.986V79.8666L239.896 73.1097C213.134 68.0787 185.663 68.1531 158.93 73.329L125.163 79.8666V156.605C125.163 181.588 138.114 204.786 159.381 217.895Z"
    stroke="currentColor"
  />
  <path
    d="M155.185 220.278L199.33 247.49L245.011 220.147C266.735 207.144 280.033 183.687 280.033 158.368V75.7362L239.834 68.1789C213.073 63.1479 185.602 63.2223 158.868 68.3982L120.967 75.7362V158.987C120.967 183.97 133.918 207.168 155.185 220.278Z"
    stroke="currentColor"
  />

  <path
    d="M151.202 222.54L199.271 252.172L248.995 222.409C270.719 209.406 284.016 185.949 284.016 160.63V71.8148L239.775 63.4975C213.014 58.4665 185.543 58.5409 158.81 63.7168L116.984 71.8148V161.249C116.984 186.232 129.935 209.43 151.202 222.54Z"
    stroke="currentColor"
  />
</svg>
