<svg
  width="401"
  height="302"
  viewBox="0 0 401 302"
  fill="none"
  xmlns="http://www.w3.org/2000/svg"
>
  <g clip-path="url(#clip0_247_1867)">
    <path
      d="M-8.63352 114.754H108.449V63.4131L158.684 53.687C185.417 48.5112 212.888 48.4368 239.65 53.4678L292.551 63.4131V114.445H418.972M84.2989 166.095H108.449C108.449 191.078 121.4 214.276 142.667 227.385L199.146 262.201L257.53 227.255C279.253 214.252 292.551 190.794 292.551 165.476H322.013M337.504 118.97H288.017V67.8764L239.716 58.796C212.955 53.765 185.484 53.8394 158.751 59.0153L112.983 67.8764V155.986H36.1485M378.737 160.78H288.017V162.902C288.017 188.22 274.719 211.677 252.995 224.68L199.213 256.873L147.201 224.811C125.934 211.701 112.983 188.504 112.983 163.52V161.766H-10.7881"
      stroke="currentColor"
    />
    <path
      d="M-8.63352 114.754H108.449V63.4131L158.684 53.687C185.417 48.5112 212.888 48.4368 239.65 53.4678L292.551 63.4131V114.445H418.972M84.2989 166.095H108.449C108.449 191.078 121.4 214.276 142.667 227.385L199.146 262.201L257.53 227.255C279.253 214.252 292.551 190.794 292.551 165.476H322.013M337.504 118.97H288.017V67.8764L239.716 58.796C212.955 53.765 185.484 53.8394 158.751 59.0153L112.983 67.8764V155.986H36.1485M378.737 160.78H288.017V162.902C288.017 188.22 274.719 211.677 252.995 224.68L199.213 256.873L147.201 224.811C125.934 211.701 112.983 188.504 112.983 163.52V161.766H-10.7881"
      stroke="currentColor"
      stroke-dasharray="550"
      stroke-dashoffset="550"
    />
  </g>
  <defs>
    <linearGradient
      id="paint0_linear_247_1867"
      x1="200.5"
      y1="49.749"
      x2="200.5"
      y2="253.928"
      gradientUnits="userSpaceOnUse"
    >
      <stop stop-color="#A89F9F" stop-opacity="0.31" />
      <stop offset="1" stop-color="#A89F9F" stop-opacity="0" />
    </linearGradient>
    <clipPath id="clip0_247_1867">
      <rect width="401" height="302" fill="white" />
    </clipPath>
  </defs>
</svg>
